<?xml version="1.0" encoding="UTF-8"?>
<svg id="Layer_2" data-name="Layer 2" xmlns="http://www.w3.org/2000/svg" viewBox="0 0 129.07 109.21">
  <defs>
    <style>
      .cls-1 {
        fill: #681436;
      }
    </style>
  </defs>
  <g id="Layer_1-2" data-name="Layer 1">
    <g>
      <path class="cls-1" d="m.01,60.01C.77,40.53,9.37,25.79,26.55,16.26c3.19-1.77,6.65-2.85,10.13-3.9.94-.28,1.26.02,1.53.9,1.24,4.19,1.22,4.07-2.84,5.46-10.4,3.55-18.46,10.07-23.84,19.66-7.41,13.19-7.91,26.71-1.45,40.45,1.74,3.71,3.98,7.08,6.72,10.11.71.79.73,1.38-.07,2.06-.55.47-1.05,1-1.56,1.51-1.59,1.57-1.62,1.6-3.09-.16C5.22,84.18,1.06,74.89.23,64.2c-.06-.72-.17-1.44-.21-2.16-.04-.68,0-1.35,0-2.03Z"/>
      <path class="cls-1" d="m57.81,25.94c-7.17,0-13.04-5.78-13-13.04C44.85,6.22,50.43-.18,57.95,0c7.22.18,12.67,5.47,12.89,12.82.22,7.24-5.77,13.12-13.03,13.12Z"/>
      <path class="cls-1" d="m49.32,109.19c-7.3-.06-14.31-1.41-20.94-4.58-1.26-.6-1.54-1.25-.83-2.44.62-1.03.9-2.49,1.78-3.07,1.06-.7,2.2.61,3.27,1.05,9.45,3.84,19.08,4.41,28.85,1.53,10.71-3.15,19-9.54,24.88-19.03.66-1.07,1.32-1.68,2.67-1.38.98.22,2.01.23,3.02.33,1.04.11,1.21.63.72,1.48-2.96,5.21-6.47,9.95-11.02,13.91-8.48,7.38-18.34,11.33-29.51,12.17-.96.07-1.93,0-2.9,0Z"/>
      <path class="cls-1" d="m80.12,61.65c0-3.48.03-6.96-.02-10.44-.01-1.12.42-1.61,1.52-1.59,3.72.05,7.45-.04,11.16.15,3.27.17,5.74,1.93,6.92,4.95,1.14,2.9.8,5.8-1.21,8.35-.74.94-1.75,1.53-2.83,1.95-.82.32-.77.67-.25,1.25,1.72,1.9,3.43,3.81,5.1,5.74.35.41.98.84.62,1.48-.3.54-.97.26-1.47.35-2.83.48-4.91-.52-6.47-2.96-.9-1.41-2.15-2.6-3.26-3.88-.78-.91-3.2-1.41-4.28-.91-.63.29-.55.85-.56,1.37-.06,1.74-.14,3.48-.13,5.21,0,.82-.31,1.17-1.09,1.16-.05,0-.1,0-.15,0-4.31.02-3.58.28-3.62-3.33-.03-2.95,0-5.9,0-8.85,0,0,0,0,.01,0Zm9.12-7.24s0-.02,0-.02c-.92,0-1.84.03-2.76,0-.99-.04-1.41.39-1.39,1.38.03,1.4.03,2.81.01,4.21-.01.87.3,1.38,1.25,1.37,1.93-.02,3.87.05,5.8-.05,1.9-.1,3.1-1.48,3.11-3.35,0-1.96-1.2-3.36-3.12-3.51-.96-.08-1.93-.01-2.9-.01Z"/>
      <path class="cls-1" d="m58.04,69.25c-1.55,0-3.1.04-4.64-.02-.97-.04-1.57.31-1.89,1.21-.05.14-.12.26-.19.39-1.57,3.26-1.57,3.24-5.26,2.99-1.16-.08-1.29-.56-.87-1.5,1.53-3.39,3.04-6.8,4.57-10.19,1.65-3.65,3.36-7.28,4.98-10.95.5-1.13,1.17-1.57,2.43-1.56,3.43.05,3.38.02,4.78,3.18,2.84,6.4,5.74,12.78,8.63,19.17.72,1.59.58,1.8-1.19,1.83-.1,0-.19,0-.29,0-3.39-.06-3.04.5-4.38-2.92-.47-1.21-1.13-1.77-2.47-1.67-1.39.11-2.8.02-4.21.02Zm-.07-13.65c-1.29,2.9-2.44,5.49-3.58,8.09-.29.66-.08.97.7.95,1.98-.06,3.96-.07,5.94-.08.58,0,.84-.2.58-.79-1.17-2.63-2.34-5.25-3.64-8.17Z"/>
      <path class="cls-1" d="m49.58,88.1c-12.9,0-23.83-8.09-27.33-19.91-.38-1.28-.24-1.91,1.17-2.29,3.43-.92,3.48-1.01,4.8,2.2,4.03,9.8,13.02,14.49,21.71,14.36,1.84-.03,3.65-.4,5.42-.91q1.89-.54,2.6,1.33c.1.27.19.55.29.82,1.01,2.87,1.02,2.89-1.99,3.62-2.31.56-4.65.9-6.68.78Z"/>
      <path class="cls-1" d="m119.9,74.75c-5.99-.01-10.22-2.9-11.9-8.12-1.78-5.56.07-11.66,4.51-14.82,4.46-3.18,11.6-2.8,15.7.79.71.63.79,1.16.05,1.78-.15.12-.28.27-.41.41q-1.75,1.73-3.83.63c-3.24-1.72-7.31-1.17-9.67,1.3-2.33,2.44-2.81,6.67-1.1,9.74,2.07,3.7,7.45,4.86,11.35,2.25,1.26-.84,1.93-.73,2.9.29,2.16,2.26,2.18,2.38-.51,4.03-2.04,1.25-4.04,1.74-7.09,1.73Z"/>
      <path class="cls-1" d="m48.85,31.67c4.2.17,7.89.79,11.4,2.33.86.38,1.11.81.66,1.66-.63,1.19-.92,2.8-1.89,3.51-1.02.74-2.4-.5-3.63-.82-10.61-2.74-20.71,1.51-26.01,11.07-.59,1.07-1.21,1.42-2.29.78-.41-.24-.87-.43-1.31-.62-2.51-1.08-2.55-1.1-1.14-3.5,5.53-9.35,13.9-13.88,24.21-14.42Z"/>
      <path class="cls-1" d="m95.07,45.57c-.14-.02-.29-.08-.43-.07-3.33.36-4.92-1.28-6.23-4.31-2.86-6.63-7.5-12.01-13.37-16.26-.81-.59-.97-1.06-.32-1.87.64-.79,1.19-1.65,1.73-2.5.52-.81,1.05-.98,1.88-.35,4.74,3.59,8.8,7.79,12.09,12.77,2.33,3.54,4.07,7.34,5.5,11.3.34.95.25,1.41-.86,1.28Z"/>
      <path class="cls-1" d="m21.25,102.92c-3.22,0-5.78-2.49-5.77-5.62.01-3.2,2.59-5.76,5.82-5.79,3.15-.03,5.59,2.47,5.64,5.76.04,3.17-2.45,5.64-5.69,5.65Z"/>
      <path class="cls-1" d="m18.23,57.94c0-3.17,2.29-5.47,5.49-5.52,2.7-.04,5.1,2.52,5.1,5.45,0,3.12-2.28,5.47-5.34,5.49-2.91.02-5.25-2.4-5.25-5.42Z"/>
      <path class="cls-1" d="m65.12,43.35c-1.99.03-3.44-1.41-3.47-3.45-.03-1.92,1.55-3.53,3.46-3.52,1.79.01,3.39,1.62,3.43,3.44.04,1.98-1.42,3.5-3.41,3.53Z"/>
      <path class="cls-1" d="m65.61,81.46c.03,1.52-1.39,3-2.91,3.05-1.55.05-3.09-1.45-3.11-3.02-.02-1.55,1.35-2.98,2.91-3.04,1.6-.05,3.08,1.37,3.11,3Z"/>
    </g>
  </g>
</svg>