<?xml version="1.0" encoding="UTF-8"?>
<svg id="Layer_2" data-name="Layer 2" xmlns="http://www.w3.org/2000/svg" viewBox="0 0 1019 340.59">
  <defs>
    <style>
      .cls-1 {
        fill: #641436;
      }
    </style>
  </defs>
  <g id="Layer_1-2" data-name="Layer 1">
    <g>
      <path class="cls-1" d="m283.96,32.67c2.13-5.02,1.54-11.32,8-14.38-2.58-.81-4.48-1.83-5.61-3.92-1.11-2.07-1.4-4.16-.36-6.19.99-1.92,2.96-1.07,4.51-1.02,13.98.47,27.36-3.43,40.98-5.52,14.35-2.2,28.52-2.24,42.34,2.84,9.73,3.58,12.55,7.57,12.93,17.75.02.66.01,1.33.02,1.99.04,2.98-1.07,6.85.39,8.71,1.86,2.38,5.3-.63,8.12-.88,1.89-.17,3.67-.27,4.64,1.88.92,2.04.14,3.55-1.35,4.85-2.54,2.22-5.52,3.73-8.62,4.94-3.04,1.19-4.27,3.26-4.35,6.47-.4,15.5-.4,30.96,5.05,45.78,1.34,3.64.57,4.66-3.21,4.58-5.02-.11-7.97-2.78-10-6.97-3.78-7.81-4.89-16.17-5.16-24.7-.29-9.16.45-18.28,1.13-27.39.23-3.04-.05-4.61-3.64-2.68-2.89,1.56-6.11,2.52-9.18,3.75-1.87.75-3,2.23-3.22,4.12-1.38,12.04-2.67,24.1-2.92,36.23-.03,1.59.89,3.18,1.27,4.79.84,3.54,2.37,7.31-2.39,9.4-4.18,1.83-9.44-.21-11.46-4.37-.22-.45-.44-.94-.47-1.42-.55-9.06-7.26-11.42-14.43-13.32-4.98-1.32-10.01-2.51-14.9-4.11-3.19-1.05-6.2-2.76-6.68-6.66-.48-3.93,1.59-6.47,4.62-8.72,8.15-6.04,16.49-11.85,24.02-18.68.89-.81,2.64-1.45,1.96-3.03-.53-1.23-2.08-.68-3.19-.78-3.32-.29-6.64-.61-9.96-.72-16.15-.53-32.76,8.73-32.18,29.02.19,6.5.92,12.92,1.53,19.37.3,3.17.36,6.31-.45,9.41-.88,3.38-3.34,5.17-6.6,4.92-3.38-.26-4.3-2.79-4.39-6.08-.36-14.31,1-28.57,1.26-42.86.13-6.95-.73-7.7-7.58-7.68-4.32.02-7.96-2.18-11.74-3.85-2.22-.98-4.33-2.27-6.99-2.13,4.76,3.67,9.17,7.51,12.65,12.41,7.3,10.24,4.68,20.61.36,30.78-1.4,3.3-4.74,6.04-8.92,4.95-3.84-1-6.09-4.09-6.42-8.05-.36-4.3-.4-8.63-.33-12.95.06-3.12,1.16-5.91,4.22-7.4,2.63-1.28,2.8-2.96,1.08-5.14-1.97-2.5-4.07-4.85-6.74-6.6-4.13-2.7-6.15-1.94-6.57,2.94-1.16,13.41-2.35,26.84.73,40.2.52,2.24.71,4.61.7,6.91-.01,3.96-2.9,5.09-6.15,6.06-3.3.99-5.36-.11-7.1-2.85-1.72-2.69-.91-6.94-4.85-8.23-5.14-1.69-10.46-2.05-15.77-1.18-2.75.45-5.22.41-7.74-.85-4.82-2.42-6.15-5.65-4.02-10.62,2.12-4.93,5.44-9.12,8.59-13.4,5.23-7.09,10.93-13.87,14.72-21.9,2.09-4.43,1.47-4.9-3.31-5.32-6.91-.6-12.94,2.79-19.38,3.64-7.69,1.02-7.95,5.87-8.65,11.33-1.85,14.54-2.22,29.16-2.21,43.79,0,3.91-.36,7.77-5.08,9.2-5.75,1.74-10.48-2.5-9.27-8.36.23-1.14.5-2.28.88-3.38,1.23-3.53-.49-5.15-3.72-5.32-4.98-.25-9.97-.23-14.96-.23-4.51,0-9.03-.09-13.26-1.85-4.89-2.03-5.73-5.38-2.18-9.22,2.7-2.93,5.79-5.49,8.63-8.29,2.48-2.45,4.92-4.95,7.23-7.55.96-1.08,2.18-2.54,1.54-3.98-.86-1.92-2.91-1.02-4.48-.98-6.38.19-12.59-1.03-18.72-2.51-3.29-.79-5.95-2.7-7.6-5.97-.73-1.45-.35-4.91-3.46-3.62-2.93,1.22-7.19.95-7.58,5.87-1.11,13.9-2.98,27.81,1.5,41.52.46,1.4.58,2.93.7,4.42.17,2.03.17,4.12-2.01,5.2-2.35,1.16-4.67.63-6.5-1.04-2.97-2.72-5.27-5.77-5.78-10.11-1.67-14.24-1.21-28.56-1.74-42.84-.22-5.88-.31-5.86-5.47-3.52-4.56,2.07-7.08,5.66-7.74,10.3-1.77,12.55-1.29,25.15-.1,37.73.29,3.11,2.44,6.89-2.29,8.39-3.58,1.14-9-2.91-9.65-6.85-.22-1.3-.16-2.65-.22-3.98-.24-6.22-2.53-9.33-8.34-11.35-1.5-.52-2.67-.48-4.13.53-14.86,10.25-34.66,9.86-49.18-.89-4.04-2.99-7.52-6.56-10.51-10.59-.88-1.19-1.67-2.5-2.24-3.87-1.54-3.73-.27-6.74,3.24-8.25,3.88-1.67,6.44.99,6.97,4.26,1.17,7.21,5.47,11.52,11.66,14.36,7.21,3.31,14.67,2.82,21.92.31,9.28-3.21,13.95-17.06,9.01-25.71-1.26-2.21-2.4-2.19-3.41-.01-1.81,3.92-3.39,7.94-5.19,11.87-2.25,4.91-6.04,6.35-10.97,4.31-4.13-1.71-6.13-6.32-4.51-10.78,1.38-3.8,4.07-6.83,6.39-10.07,2.46-3.42,1.76-4.95-2.51-5.37-3.65-.35-7.32-.35-10.95.35-2.47.48-4.96.73-7.43.08-4.44-1.17-8.55-.5-12.42,1.95-2.33,1.48-4.63,2.3-6.01-1.19-1.08-2.73-1.22-4.57,2.27-6.22,5.98-2.82,11.84-4.21,18.3-2.36.95.27,2.03.66,2.94.47,8.78-1.86,17.4-2.18,25.63,2.21.14.07.37.13.48.07,9.78-5.55,19.35,1.64,29.09.48,5.5-.66,11.18,1.56,16.64-1.26,2.49-1.29,2.89-2.25.95-4.3-2.41-2.55-4.44-5.4-5.99-8.55-3.03-6.15-1.45-11.04,4.76-14.04C101.25.73,107.25.2,113.26.05c30.05-.79,57.43,8.44,83.06,23.11,6.53,3.74,13.03,4.29,19.83,4.08,6.5-.2,12.73,3.27,18.57,2.48,5.79-.78,11.37-3.93,17.68-3.76,5.01.14,9.4,1.81,13.7,4.13,1.1.59,2.5,2.21,3.49,1.23,5.27-5.18,9.62-.92,14.36,1.34Zm-89.84-3.36c-1.71-1.03-2.12-1.3-2.55-1.53-24.29-12.87-50.1-19.32-77.67-18.19-2.98.12-5.95.64-8.72,1.9-3.22,1.47-4.13,3.71-2.18,6.79,2.24,3.53,4.71,7.35,8.38,9.03,4.66,2.14,7.81,9.2,14.98,4.92,1.85-1.11,2.99-2.23,4.01-3.86,3.12-4.97,6.28-9.91,12.9-10.67,3.4-.39,6.26.58,8.35,3.36,2.03,2.69,1.26,5.4-.33,7.89-1.78,2.8-3.85,5.4-5.68,8.17-.96,1.45-2.78,2.88-1.72,4.84.99,1.82,3.16,1.42,4.94,1.71,10.07,1.64,18.47-2.56,26.77-7.36,5.3-3.06,10.48-6.49,18.51-7Zm180.04-3.26c-.04-10.57-4.55-15.6-15.13-16.63-12.75-1.25-25.19,1.57-37.72,3.1-1.23.15-3.05-.08-3.4,1.5-.43,1.94,1.53,2.35,2.8,2.91,7.15,3.19,14.44,6.01,22.23,7.24,3.19.51,5.6,1.62,6.48,5.18.77,3.1,3.35,4.01,6.22,3.46,5.53-1.06,11-2.51,16.54-3.49,2.31-.41,1.92-1.81,1.98-3.26Zm-139.65,38.69c.12,0,.25,0,.37,0,0-3.32.04-6.65-.02-9.97-.02-1.09.42-2.52-.89-3.12-1.33-.61-2.09.67-2.9,1.42-3.55,3.29-6.62,7.03-9.37,10.99-2.59,3.74-7.72,7.95-5.49,11.97,2.44,4.38,9.08,3.72,14.16,4.31,2.76.32,4.08-.99,4.12-3.65.05-3.99.01-7.97.01-11.96Zm-51.29-13.71c-.45-.17-.9-.34-1.35-.51-5.29,5.86-10.76,11.56-15.44,17.96-4.71,6.44-4.57,6.87,3.02,8.7,2.9.7,5.83,1.24,8.77,1.72,1.72.29,3.46.25,3.6-2.16.48-8.57.94-17.14,1.4-25.7Zm163.76,2.21c.38-5.72-1.09-7.13-4.22-5.35-6.4,3.63-11.87,8.48-16.7,14.01-1.59,1.81-1.87,3.44,1.04,4.47,4.07,1.44,8.11,2.99,12.06,4.7,2.37,1.03,3.36.18,3.9-2.02,1.42-5.8,2.87-11.58,3.93-15.81Zm-266.62-.78c0-.65.03-2.47,0-4.29-.11-6.15-3.97-9.33-10.12-8.44-1.81.26-3.01.86-1.88,2.85,3.99,7,3.11,14.33,1.68,21.73-.54,2.76,2.63,5.98,6.15,6.26,3.67.28,2.64-2.75,2.89-4.56.57-4.1.81-8.24,1.29-13.55Zm214.62-32.95c2.28,2.99,1.49,6.44,1.5,9.8,0,1.45-.33,3.31,2.17,2.59,5.75-1.65,11.48-3.37,18.5-5.44-6.88-2.5-12.43-4.58-18.03-6.51-1.16-.4-2.34-1.36-4.15-.45Z"/>
      <path class="cls-1" d="m883.73,35.74c0-1.79-.12-3.6.03-5.38.24-2.86.61-6.15,4.09-6.57,3.37-.4,6.95-.98,9.23,3.41,1.55,2.99,5.25,3.62,8.79,3.51,3.59-.11,2.73-3.15,3.64-5.02.36-.74.42-1.69.93-2.3,3.02-3.6,2.37-5.15-2.41-6.07-3.39-.66-4.79-3.87-4.44-7.41.17-1.75.74-3.07,3.09-2.9,14.67,1.04,28.7-3.18,42.97-5.37,14.52-2.23,28.85-2.2,42.81,3.02,9.18,3.43,12.26,7.87,12.5,17.6.02,1-.05,2,.01,2.99.17,2.8-1.33,6.45.6,8.15,1.7,1.5,4.93-.78,7.5-1.25,2.02-.37,4.07-.55,5.06,1.89.92,2.26-.11,3.93-1.88,5.14-1.91,1.31-3.85,2.81-6.01,3.5-5.38,1.7-6.61,5.21-6.58,10.55.09,14.83-.07,29.64,5.51,43.74,1.13,2.85,0,3.39-2.6,3.56-5.46.35-8.81-2.42-11.01-6.98-2.93-6.07-4.29-12.57-4.72-19.25-.69-10.64-.19-21.27.75-31.88.14-1.6,1.01-3.7-.34-4.74-1.46-1.12-3.07.57-4.52,1.25-2.99,1.41-5.74,3.21-9.02,4.14-3.92,1.11-5.04,4.23-5.07,8.15-.08,11.79.93,23.6-.65,35.37-.34,2.5-.78,4.94-1.88,7.2-2.03,4.15-5.28,4.25-7.98.42-1.57-2.22-1.63-4.65-1.38-7.16.83-8.22-1.27-15.48-7.02-21.54-1.46-1.54-2.85-3.61-5.35-3.06-3.25.71-1.03,3.26-1.36,4.95-.99,5.09-5.34,6.42-9.24,8.13-2.64,1.16-5.21.9-7.24-1.5-2.82-3.33-2.24-6.79-.27-10.18,3.17-5.47,6.18-10.95,13.01-13,7.85-2.36,11.05-1.58,15.9,4.98.56.76.77,1.89,2.05,2.03,1.14-.54.74-1.7.87-2.59,2.36-16.53-.47-19.44-17.31-18.48-7.44.43-14.45,2.2-21.05,5.54-6.27,3.18-7.61,9.29-8.63,15.42-1.29,7.79-.59,15.58.46,23.34.51,3.8.8,7.59,0,11.41-.77,3.63-3.13,5.66-6.65,5.5-3.81-.18-4.5-3.09-4.55-6.44-.19-12.65.7-25.25,1.23-37.87.09-2.16.22-4.32.23-6.48.01-3.14-.93-5.77-4.65-5.73-3.41.04-6.4,4.03-5.52,7.28.36,1.32.8,2.56.31,3.86-3.86,10.2-2.32,20.99-3.51,31.48-.43,3.78,1.2,6.42,4.8,7.8,1.24.48,2.61.82,3.65,1.6,3.02,2.28,4.42,5.32,3.52,9.14-.99,4.18-4.43,2.83-6.96,2.73-8.03-.33-12.28-4.08-13.43-11.97-1.62-11.14-4.53-22.18-2.77-33.62.26-1.67.95-4.12-.86-5.07-2.18-1.14-3.5,1.33-4.94,2.48-6.62,5.3-12.99,10.92-19.71,16.1-5.46,4.21-11.18,8.53-18.33,2.88-.78-.62-1.57-.28-2.3.16-4.47,2.65-7.81.95-10.93-2.55-1.53-1.72-3.5-3.06-5.35-4.48-1.84-1.41-3.64-3.44-5.72-3.84-2.54-.48-2.53,2.93-3.95,4.39-3.6,3.71-10.63,3.45-14.29-.83-3.26-3.81-3.34-8.18-1.64-12.67,1.49-3.94,4.7-4.93,8.5-4.48,2.92.34,3.05-1.05,2.29-3.2-.06-.16-.09-.32-.15-.47-1.79-4.29-3.61-8.55-6.79-12.05-4.25,4.14-10.88,4.96-14.36,10.07-4.86,7.14-4.98,15.37-4.72,23.55.16,4.97.93,9.92,1.35,14.89.24,2.82.27,5.66-.5,8.42-.93,3.33-3.29,5.16-6.61,4.91-3.51-.27-4.32-2.94-4.33-6.13-.05-11.64.25-23.27.97-34.89.21-3.48.32-6.97.36-10.46.04-3.17-1.86-5.62-4.75-5.26-6.32.79-11.25-2.31-16.54-4.58-1.63-.7-3.32-1.25-5.18-1.5,2.79,3.02,6.3,5.06,9.05,8.03,9.32,10.08,11.09,23.27,4.24,35.08-1.96,3.38-4.91,6.45-9.29,5.21-3.97-1.13-6.16-4.36-6.33-8.64-.16-3.98-.39-7.97-.31-11.95.07-3.28,1.08-6.25,4.35-7.86.15-.07.29-.16.43-.25,1.8-1.08,2.1-2.57.86-4.18-2.95-3.79-5.71-8.14-11.03-8.55-2.59-.2-2.57,2.6-2.74,4.56-1.22,14.44-2.02,28.85,1.36,43.16,1.03,4.36.16,7.95-4.82,9.41-4.88,1.43-7.63.62-8.84-4.25-1.46-5.87-5.13-7.54-10.43-7.81-3.66-.19-7.29-.44-10.93.28-4.16.82-7.64-.8-10.11-3.99-2.36-3.05-1.21-6.39.47-9.38,3.66-6.55,8.39-12.38,12.86-18.38,3.78-5.06,7.47-10.2,10.08-16.01,1.25-2.79.8-4.61-2.72-4.46-19.93.87-35.92,9.42-48.22,24.93-2.17,2.74-3.16,6.18-3.7,9.7-.99,6.57,1.05,10.3,7.29,12.98,3.97,1.71,8.03,3.23,11.89,5.16,3.98,1.99,6.92,5.1,5.85,9.92-1.07,4.82-5.37,4.54-9.2,5.03-12.77,1.65-28.73-17.56-28.43-29.8.27-10.9,3.48-19.78,13.08-25.83,3.79-2.39,7.18-5.39,10.85-7.97,2.74-1.93,2.16-3.68.09-5.6-3.07-2.85-6.72-3.44-10.68-2.71-4.63.86-8.92,2.66-13.07,4.81-2.22,1.15-4.46,1.28-5.69-.94-1.33-2.41-.71-5.31,1.8-6.51,9.49-4.56,19.43-6.91,29.99-4.37,2.85.68,4.36,3.04,5.47,5.47,1.28,2.79,3.2,3.02,5.69,2.04.31-.12.62-.25.91-.42,11.46-6.42,23.39-4.3,35.27-1.76,2.7.58,4.81.52,7.51-.71,8.79-3.99,17.75-3.86,26.36.89,2.51,1.38,4.34,2.52,7.38.06,2.76-2.23,6.55-.06,9.1,1.74,2.98,2.1,3.08.65,3.61-1.67.56-2.41,1.28-4.83,2.27-7.09,1.07-2.41,2.91-4.32,5.86-3.47,2.51.72,3.33,2.91,3.68,5.4.35,2.48-1.89,5.97.96,7.14,1.53.63,4.36-1.84,6.58-2.97,1.94-.99,3.86-1.87,6.14-1.81,11.81.31,23.61.64,35.42.79,3.47.05,6.95-.47,10.43-.68,3.14-.19,6.35-.73,8.95,1.87.41.41,1.24.68,1.83.61,10.21-1.09,19.25,2.91,28.42,6.4.27.1.64-.06,1.13-.11Zm108.45-10.4c-.28-10.2-4.48-14.83-14.61-15.89-12.87-1.34-25.43,1.52-38.08,3.06-1.24.15-3.04-.01-3.35,1.56-.37,1.9,1.55,2.34,2.82,2.91,7.13,3.16,14.4,5.94,22.16,7.2,2.91.47,6.07,1.25,6.01,4.75-.1,5.21,2.99,4.73,6.22,4.06,5.5-1.14,10.92-2.71,16.44-3.71,2.76-.5,2.45-2.13,2.4-3.95Zm-174.84,9.83c-2.16,0-4.32-.04-6.48.02-1.39.04-3.09.35-2.38,2.2,2.43,6.3,6.05,12.12,7.56,18.81.08.36.76.61,1.18.87,4.11,2.52,8.19,5.08,12.34,7.53,2.89,1.7,4.41.78,4.29-2.59-.17-4.65-.52-9.3-1.66-13.82-3.51-13.89-1.44-11.98-14.84-13.01Zm-95.75,30.22c.11,0,.23,0,.34,0,0-3.97.04-7.94-.01-11.91-.03-2.1-1.09-2.91-2.73-1.35-6.52,6.19-12.25,13.02-16.08,21.24-1.02,2.18-.37,3.83,2.11,4.59,3.97,1.21,7.98,2.14,12.15,2.42,2.72.18,4.14-.93,4.2-3.58.09-3.8.02-7.6.02-11.41Zm125.41-12.5h.11c-.08,1-.1,2-.25,2.98-.51,3.29.78,4.5,3.88,3.13,8.67-3.83,16.67-8.83,24.34-14.35,1.72-1.23,2.1-2.84-.41-3.54-6.15-1.73-12.36-4.53-18.56-.13-1.81,1.29-3.35,1.6-5.22-.12-2.22-2.05-2.68-.23-2.86,1.67-.34,3.46-.68,6.92-1.02,10.37Zm90.64-25.31c-4.03-1.59-7.03-2.92-10.13-3.95-2.26-.75-5.12-3.32-6.71-1.49-1.37,1.57-.58,5.03-.68,7.66-.07,1.72.81,2.45,2.5,2.03,4.62-1.14,9.47-1.42,15.03-4.25Z"/>
      <path class="cls-1" d="m512.47,128.53c166.66,0,333.33,0,499.99-.04,3.85,0,6.66-.08,6.53,5.31-.11,4.69-1.65,5.8-6.12,5.79-64.93-.13-129.87-.09-194.8-.09-268.73,0-537.45,0-806.18-.04-2.99,0-6.97,1.5-6.91-4.26.07-6.55-.11-6.67,6.5-6.67,167,0,333.99,0,500.99,0Z"/>
      <path class="cls-1" d="m562.74,50.97c1.75-5.09,3.12-9.35,4.68-13.54,1.88-5.05,1.67-5.69-3.94-5.42-11.35.55-22.55,2.19-32.89,7.26-2.53,1.24-4.44,1.19-6.25-.68-2.05-2.12-1.16-5.45,1.9-6.72,14.39-5.98,29.11-9.48,44.72-5.36,1.47.39,2.8.66,4.33-.02,10.71-4.8,20.86-2.97,30.16,3.44,2.97,2.05,5.49,2.66,8.68,1.53.47-.17.95-.34,1.44-.39,2.91-.29,6.6-1.7,8.16,1.58,1.66,3.49-2.57,4.33-4.37,6.23-.11.12-.27.19-.41.28-3.33,2.19-6.6,6-10.02,6.14-4.04.16-4.56-5.68-6.98-8.65-5-6.13-13.92-6.05-18.63.19-4.44,5.88-6.87,12.46-7.8,19.68-.58,4.54,1.38,6.39,5.8,4.92,4.25-1.41,8.32-3.36,12.45-5.11,5.21-2.2,9.35-1.11,10.73,4.11,3.22,12.12,3.13,24.37-1.94,36.07-2.08,4.79-6.56,6.53-11.65,5.81-14.55-2.06-28.69-5.71-42.24-11.48-5.25-2.24-8.57-6.75-12.39-10.64-1.89-1.92-.64-3.31,1.14-4.33,3.07-1.76,8.23-.36,9.88,2.91,1.54,3.04,3.98,4.83,6.94,6.1,10.27,4.39,21.1,5.78,32.15,6.05,3.99.1,6.27-1.79,6.72-5.77.38-3.31.58-6.63.09-9.94-.44-2.98-2.12-3.94-4.97-3-3.36,1.11-6.32,2.96-9.27,4.84-6.88,4.38-14.89,1.83-15.93-6.31-1.17-9.18-8.12-13.2-13.37-18.9-.95-1.04-2.18-1.86-3.3-.25-.79,1.14-2.58,2.56-1.16,3.85,2.08,1.88,3.46,3.69,2.1,6.42-1.54,3.1-3.98,5.34-7.36,6.32-6.67,1.94-9.18-.34-8.02-7.21,1.3-7.71,4.8-14.5,9.19-20.82,3.18-4.59,8.52-4.68,12.8-.16,3.03,3.21,5.56,6.89,8.81,10.98Z"/>
      <path class="cls-1" d="m37.38,146.7c9.4.23,17.13,2.62,24.04,7.21,2.81,1.86,4.56,1.61,6.78-.68,2.19-2.27,4.9-3.98,7.81-5.28.87-.39,1.97-.91,2.56.34.44.94-.36,1.59-1.09,1.95-7.63,3.78-8.06,10.58-7.82,17.87.49,15.1.76,30.21,1.13,45.32.03,1.16.11,2.33.31,3.47.91,4.98,2.31,5.69,6.94,3.48.88-.42,1.75-1.35,2.49-.07.49.84-.24,1.55-.89,2.1-3.56,2.99-7.16,5.94-10.7,8.96-1.6,1.37-2.95.87-4.48-.15-4.03-2.67-5.24-6.76-5.57-11.16-.24-3.12-1.2-3.4-3.54-1.63-5.16,3.92-10.48,7.64-15.54,11.68-2.56,2.05-4.51,2.38-7.45.42-5.66-3.77-11.58-7.18-18.18-9.18-2.1-.64-4.3-1.3-6.12.46-2.04,1.96-.66,3.97.26,5.91.64,1.35,1.5,2.73.18,4.12-.75.79-1.8.85-2.78.5-1.6-.57-2.22-1.96-2.46-3.47-.52-3.32.69-6.3,2.43-8.94,3.01-4.57,6.04-9.19,9.58-13.35,2.97-3.49,3.07-5.44-.72-8.67-12.23-10.41-14.37-25.1-5.71-37.28,7.17-10.08,17.87-13.18,28.53-13.93Zm-15.06,30.3c.58-8.37,7.02-13.58,14.97-13.16,2.14.11,4.26.68,6.36,1.16,3.5.81,4.46-2.12,5.24-4.14.91-2.35-1.88-2.13-3.2-2.61-8.42-3.04-16.73-2.37-24.72,1.42-16.6,7.88-18.13,27.71-3.08,38.35,1.59,1.12,2.65,1.53,4.03-.38,5.17-7.13,10.45-14.18,15.76-21.2,1.74-2.3,1.09-3.24-1.45-4.23-5.52-2.14-9.6.15-13.92,4.78Zm4.61,18.17c10.53,0,19.45.01,28.37-.01,1.48,0,2.67-.56,2.64-2.28-.15-8.78-.1-17.57-.65-26.33-.2-3.27-4.81-5.46-6.29-3.52-7.82,10.25-15.48,20.62-24.07,32.14Zm12.06,8.26c-5.15,0-10.31.07-15.46-.02-4.28-.08-5.9,3.31-6.82,6.19-.88,2.79,2.76,2.59,4.48,3.37,6.65,3.02,13.45,5.73,20.12,8.7,2.36,1.05,4.28,1.18,6.41-.56,2.83-2.3,5.87-4.36,8.85-6.46,3.54-2.5,2.03-6.1,1.7-9.16-.34-3.1-3.37-1.96-5.32-2.03-4.65-.15-9.31-.05-13.96-.04Z"/>
      <path class="cls-1" d="m517.18,232.67c-9.97,0-16.21-4.87-20.45-12.39-2.35-4.17-4.34-4.84-8.26-1.79-5.64,4.37-11.79,8.09-17.58,12.28-2.28,1.65-3.51,1.47-5.05-.95-4.28-6.73-8.73-13.36-13.29-19.91-1.61-2.31-1.41-3.59,1.04-5.11,7.21-4.46,14.23-9.24,21.44-13.7,2.66-1.65,3.31-3.12,1.53-5.95-3.1-4.92-5.91-10.02-8.7-15.12-3.14-5.74-2.12-9.03,3.7-11.55,8.39-3.63,16.88-7.03,25.3-10.59,2.22-.94,4.02-.65,5.98.85,8.28,6.37,9.18,17.96,1.81,25.33-2.96,2.96-6.48,5.22-10.06,7.32-2.36,1.39-2.78,2.81-1.32,5.22,2.93,4.83,5.73,9.75,8.34,14.75,1.5,2.88,2.93,3.51,5.67,1.37,3.53-2.76,7.35-5.15,11.04-7.7,1.38-.96,2.71-1.98,4.48-.63,3.22,2.47,6.66,4.19,10.94,4.21,2.37.01,1.18,1.68.45,2.72-3.89,5.55-12.1,7.11-17.69,2.51-4.55-3.74-6.63.28-9.34,1.96-3.55,2.19-.3,4.45.75,6.22,5.41,9.09,11.77,11.61,22.28,9.16.95-.22,2-.9,2.68.21.58.95-.05,1.94-.56,2.78-3.64,5.95-9.2,8.35-15.14,8.51Zm-38.31-10.56c1.28-.84,2.8-1.82,4.3-2.84q9.05-6.16,3.8-15.52c-7.65-13.63-7.61-13.58-20.38-4.36-2.15,1.55-2.38,2.72-.96,4.8,3.65,5.34,7.14,10.78,10.73,16.16.52.78.92,1.82,2.51,1.77Zm20.77-55.21c-.27-3.88-2.65-8.03-7.2-10.89-3.26-2.05-6.39-1.57-9.19.86-2.71,2.34-3.43,5.3-1.72,8.53,2.41,4.55,5,9,7.5,13.51.77,1.38,1.61,1.78,3.22,1.04,4.24-1.95,7.43-6.75,7.39-13.04Z"/>
      <path class="cls-1" d="m506.43,60.62c-.26-4.81-.66-9.62-.73-14.44-.06-4.49-2.44-4.24-5.12-2.54-5.11,3.24-7.46,8.28-8.36,14.11-.93,5.99-5.25,9.24-10.31,11.1-5.07,1.86-9.95-2.52-9.81-8.18.08-3.23,1.21-6.19,2.83-8.94,1.43-2.42,2.38-4.67,2.32-7.81-.07-4.27,4.03-7.5,7.42-7.61,6.19-.22,10.51-4.3,16-5.74,3.31-.87,6.44-1.41,9.78-.83,8.66,1.49,10.94,4.25,10.05,12.82-1.2,11.57-2.25,23.15-2.82,34.78-.27,5.56.55,10.02,7.1,11.84,4.06,1.13,5.16,5,4.18,8.99-1.05,4.25-4.47,5.23-8.2,4.64-3.61-.57-7.18-1.66-9.03-5.39-2.35-4.72-6.48-6.61-11.4-7.9-17.56-4.59-35.35-6.1-53.43-5.11-5.1.28-10.32,1.37-15.33-.52-2.62-.99-5-2.67-3.95-5.93,1.03-3.2,3.95-2.64,6.34-2.02,1.96.51,3.86.87,5.87.89,19.81.18,39.6.58,59.32,2.85,7.15.82,7.8,0,7.74-7.06-.04-3.99,0-7.97,0-11.96-.14,0-.28,0-.42,0Z"/>
      <path class="cls-1" d="m711.13,183.3c3.91-4.7,7.63-8.11,11.82-9.85,3.7-1.54,5.51,2.97,7.54,5.65,1.34,1.77-.42,5.5,2.43,5.59,1.79.06,3.66-2.55,5.49-3.99,1.44-1.13,2.78-2.4,4.29-3.42,2.14-1.45,3.86-4.96,6.35-4.11,3.57,1.22,6.07,4.48,7.77,8.04.7,1.47.4,3.35,2.34,4.9,3.96-3.59,8.12-7.11,11.97-10.95,2.37-2.36,3.96-2.48,6.47-.05,5.33,5.17,5.48,5.02,12.13,1.58.12.28.42.74.34.81-4.89,4.71-5.26,10.68-5.05,16.96.24,7.3,0,14.62.09,21.93.09,6.47,1.13,7.27,7.81,6.64-3.88,3.01-7.69,6.11-11.67,8.97-1.11.79-2.1-.52-2.98-1.24-3.64-2.96-4.98-6.9-4.98-11.45.02-9.63.02-19.27-.01-28.9,0-1.94.2-3.82-1.55-5.49-2.78-2.65-4.71-3.53-8.16-.34-3.83,3.55-6.01,6.94-5.55,12.37.51,6.1.17,12.28.09,18.43-.04,3.05-.1,6,2.66,8.13.46.35.92,1.09.89,1.62-.18,2.87-9.54,7.27-11.91,5.64-1.37-.94-2.62-2.07-4.03-2.94-2.64-1.63-3.55-3.33-.71-5.65,1.44-1.17,1.43-2.88,1.42-4.57-.03-8.97-.02-17.94-.04-26.91,0-2-.06-4.02-1.45-5.67-2.25-2.68-4.13-3.94-7.77-1.09-4.41,3.44-6.24,7.13-5.83,12.65.44,5.95.14,11.95.09,17.93-.03,3.34-.31,6.69,2.79,9.09.43.33.77,1.12.73,1.67-.09,1.35-8.81,7.47-9.83,6.79-2.91-1.91-5.67-4.05-8.4-6.21-.82-.65-.42-1.61.28-2.12,3.57-2.61,2.91-6.41,2.91-10.01,0-8.31.11-16.62-.13-24.91-.19-6.27-1.61-7.24-8.6-5.52Z"/>
      <path class="cls-1" d="m603.7,156.55c-2.54,2.29-5.2,4.47-7.61,6.9-11.25,11.36-13.12,28.09-4.71,41.68.84,1.36,1.5,3.64,3.33,3.25,2.14-.46,3.54-2.46,3.84-4.74.37-2.79.59-5.62.62-8.44.09-7.64.12-15.29.01-22.93-.04-2.57.84-4.32,2.86-5.93,6.39-5.06,12.68-10.23,18.91-15.49,1.96-1.65,3.64-2.31,6.25-1.23,6.5,2.67,13.28,4.32,20.4,4.11,1.13-.03,2.49-.25,3.05,1.1.55,1.33-.55,2.1-1.31,2.96-6.73,7.64-7.93,7.9-19.12,4.14q-10.12-3.4-10.02,7.29c.15,16.28.42,32.56.34,48.84-.02,4.11,1.42,5.18,5.26,4.85,9.1-.79,17.02-4.25,24.12-9.83.82-.64,1.73-2.07,2.94-1,1.23,1.08,0,2.12-.68,2.98-10.77,13.82-25.13,19.55-42.22,17.06-16.28-2.38-27.25-11.98-31.78-27.9-4.68-16.46.78-30.02,13.37-41.03,3.45-3.01,7.13-5.75,11.27-7.71.29.36.58.71.87,1.07Zm12.96,2.1c-3.92,2.19-6.71,4.84-6.08,10.01.39,3.27-.27,6.67.13,9.94,1.58,12.64-1.24,23.34-12.65,30.57-2.12,1.34-1.87,2.72-.07,4.3,4.3,3.81,9.16,6.43,14.71,8.06,4.18,1.23,5.64.44,5.54-4.16-.39-18.42-.47-36.84-.71-55.26-.01-1.08.4-2.3-.87-3.47Z"/>
      <path class="cls-1" d="m140.8,153.76c1.83-.88,3.52.02,4.56,1.08,3.62,3.69,6.68,2.5,10.09-.33,2.31-1.91,5.31-2.42,9.97-2.96-10.84,9.12-6.69,20.29-7.55,30.46-.08.94-.34,2.17.63,2.75,1.33.79,2.08-.6,2.93-1.24,3.97-3.02,7.95-6.04,11.76-9.25,2.06-1.74,3.65-1.62,5.63.08,3.15,2.71,5.45,5.77,5.71,10.09.75,12.78.83,25.55-.07,38.32-.11,1.62-.5,3.37-1.28,4.77-6.78,12.08-18.82,16.28-30.89,21.27-.25-2.84,1.38-2.86,2.46-3.44,3.36-1.81,6.86-3.4,10.06-5.47,5.04-3.26,7.97-7.93,8.02-14.1.09-12.13.16-24.25.23-36.38.01-2.23-.59-4.2-2.16-5.92-1.74-1.9-3.15-2.16-5.51-.61-5.4,3.55-8.58,7.65-7.68,14.68.73,5.72.18,11.61.13,17.43-.03,3.01-.28,6.03,2.49,8.19.37.29.88.95.77,1.2-1.39,3.2-4.71,4.4-7.05,6.62-1.18,1.11-2.44,1.68-3.93.36-1.24-1.1-2.55-2.15-3.93-3.07-3.12-2.06-5.31-4.04-1.03-7.25,1.61-1.21,1.08-3.38,1.08-5.18.02-15.45.03-30.9,0-46.36-.02-8.93-.16-9.24-5.42-15.76Z"/>
      <path class="cls-1" d="m88.28,153.53c10.52,7.09,20.57,13.87,30.62,20.64q6.41,4.31,12.44.93c-1.99,14.82-.59,29.65-.96,44.44-.06,2.41-1.09,3.63-3.23,4.35-4.77,1.6-9.16,3.95-13.1,7.07-1.67,1.33-3.05,1.47-4.9.32-5.55-3.42-11.42-6.12-17.96-7.1-1.33-.2-3.07-.48-1.79-2.4,2.83-4.21,2.1-8.94,2.18-13.52.13-7.14.21-14.29-.04-21.43-.12-3.55.86-5.68,4.52-6.36,1.27-.24,2.44-1.02,3.66-1.56,2.49-1.1,2.49-2.37.27-3.82-1.53-1-3.05-2.02-4.57-3.03-8.93-5.92-9.3-6.83-7.16-18.54Zm30.41,51.69c0-2.48-.35-5.03.06-7.44,1.28-7.52-1.38-12.77-8.4-15.8-.3-.13-.55-.37-.83-.54-3.62-2.26-6.14-1.11-6.21,3.17-.16,9.77-.01,19.55-.08,29.32-.01,2.1.73,3.43,2.67,4.24,3.22,1.33,6.42,2.69,9.58,4.15,2.42,1.12,3.28.42,3.23-2.18-.1-4.97-.03-9.94-.02-14.91Z"/>
      <path class="cls-1" d="m227.81,153.87c5.32-.88,7.55,4.78,11.12,3.67,3.29-1.01,5.84-4.31,9.54-5.09,1.23-.26,2.47-1.16,4.14,0-10.9,9-5.95,21.37-6.93,32.51-.26,3,1.44,2.39,2.97.94,3.86-3.66,7.79-7.25,11.5-11.06,1.95-2.01,3.19-2.03,5.22.02,9.62,9.67,9.75,9.7-.39,18.27-2.72,2.3-3.65,3.85-.34,6.38,3.75,2.87,5.18,7.2,6.2,11.64.52,2.26.84,4.58,1.43,6.82.88,3.36.94,8.08,7.65,3.18-.13.74-.26,1.49-.38,2.23-3.91,2.79-7.81,5.58-11.72,8.37-1.05.75-1.92.33-2.57-.55-.79-1.06-1.4-2.25-2.17-3.33-1.45-2.03-.25-6.08-2.67-6.44-2.58-.39-4.89,2.6-6.76,4.56-5.26,5.52-10.42,7.58-16.42,1.21-.43-.45-1.16-.64-1.78-.87-3.31-1.2-7.05-1.96-2.53-6.52,1.72-1.74,1.15-4.77,1.16-7.24.05-15.28-.02-30.57.05-45.85.02-5.1-1.45-9.42-6.33-12.85Zm17.79,43.48c0,1.94-.09,3.11.03,4.25.13,1.23-.65,2.95.91,3.53,1.41.53,2.3-1.02,3.28-1.81,2.84-2.29,5.6-4.67,8.38-7.03,6.86-5.83,6.78-7.51-.42-13.01-1.05-.8-2.01-1.4-3.01-.3-4.05,4.44-11.11,7.08-9.16,14.37Zm0,16.98c-.02,4.59,3.55,9.42,6.86,9.29,2.09-.09,8.29-6.01,8.21-7.85-.15-3.84-5.31-11.29-7.89-11.4-2.92-.13-7.16,5.75-7.18,9.97Z"/>
      <path class="cls-1" d="m796.94,181.26c4.01-2.97,7.08-6.25,10.86-7.78,4.14-1.67,5.96,2.64,7.49,5.48,2.94,5.47,2.72,5.59,7.68,1.15.62-.55,1.16-1.23,1.86-1.65,2.72-1.63,4.55-6.61,7.72-5.04,4.75,2.34,9.99,5.86,10.32,11.93.6,11.09.34,22.23.45,33.35.02,2.04-1.55,2.71-2.94,3.64-3.31,2.21-6.86,4.19-9.75,6.87-2.99,2.77-5.36,3.3-9.01,1.07-4.57-2.79-5.21-2.17-4.98,3.18.23,5.41.87,10.66,6.18,14.16-4.34.68-7.69-1.14-10.1-3.44-3.13-2.99-5.44-2.85-8.37-.26-.67.59-1.71.75-3.03.86,3.44-4.96,3.8-10.41,3.74-16.03-.03-2.94-.52-4.83-4-4.68-1.81.08-3.84.11-3.73-2.7.1-2.62,2.05-2.78,3.87-2.84,3.06-.11,3.88-1.7,3.84-4.52-.12-8.13.05-16.27-.09-24.41-.11-6.47-1.07-7.45-8-8.33Zm34.86,23.12c0-4.8-.04-9.61.01-14.41.05-4.3-3.44-5.94-6.26-7.65-2.39-1.45-3.44,1.76-5.12,2.83-3.09,1.97-4.15,4.81-3.92,8.48.27,4.29.06,8.61.06,12.91q0,10.66,9.89,13.68c.63.19,1.29.35,1.89.62,2.77,1.29,3.52.05,3.48-2.57-.07-4.64-.02-9.27-.03-13.91Z"/>
      <path class="cls-1" d="m904.95,181.48c3.35-2.63,6.62-5.38,10.09-7.85,2.19-1.56,8.18,2.09,8.51,5.98.58,6.8,3.02,4.35,5.96,1.79,1-.87,2.1-1.64,3.16-2.44,2.65-2,5.1-5.15,8.02-5.69,3.28-.6,5.12,3.61,7.61,5.67,1.74,1.44,3.02,1.71,4.64-.03.94-1.01,1.8-2.36,3.96-2.35-9.31,13.17-3.71,27.74-4.9,41.55-.37,4.33,2.17,6.41,7.29,3.22.04.59.09,1.19.13,1.78-3.63,2.9-7.22,5.83-10.89,8.67-1.44,1.11-2.42-.18-3.45-.98-4.1-3.18-5.03-7.63-5.04-12.45-.02-9.31-.28-18.63.09-27.93.17-4.33-2.45-6.22-5.18-8.35-.45-.36-1.24-.54-1.82-.45-3.28.48-8.99,7.27-9,10.68-.03,7.81.04,15.63-.04,23.44-.03,2.73,0,5.32,2.39,7.23.48.39,1.16,1.34,1.01,1.59-1.82,3.08-5.07,4.62-7.67,6.88-1.77,1.54-3.03.21-4.34-.82-1.43-1.14-2.79-2.4-4.33-3.37-2.62-1.66-3.06-3.22-.32-5.19,1.31-.94,1.65-2.41,1.64-3.99-.08-9.97.07-19.95-.26-29.92-.2-5.88-1.24-6.47-7.27-6.68Z"/>
      <path class="cls-1" d="m701.93,201.8c0,5.82-.11,11.63.05,17.45.07,2.71-.78,4.27-3.44,5.22-4.55,1.62-8.95,3.67-12.75,6.7-1.85,1.47-3.26.91-4.95-.02-5.69-3.13-11.39-6.26-18.05-6.82-2.26-.19-2.6-1.18-1.26-2.84,2.06-2.56,1.91-5.59,1.92-8.57.05-8.81.14-17.61-.03-26.42-.06-3.08.75-4.92,3.88-5.93,4.13-1.32,7.99-3.41,11.35-6.15,2.21-1.81,3.93-1.58,6.24-.26,4.19,2.4,8.65,4.32,13.38,5.37,2.8.62,3.81,2,3.73,4.83-.16,5.81-.05,11.63-.05,17.45Zm-26.82-1.86c0,2.15,0,4.31,0,6.46,0,11.71.04,11.6,11.2,15.79,3.33,1.25,4.06.29,4.02-2.86-.11-7.29-.03-14.57-.03-21.86q0-11.3-10.95-14.53c-.32-.09-.64-.17-.95-.29-2.31-.87-3.36-.23-3.3,2.39.11,4.97.03,9.94.03,14.91Z"/>
      <path class="cls-1" d="m332.79,222.58c-3.86,3.12-7.68,6.29-11.61,9.33-1.23.95-2.11-.35-3-1.01-3.54-2.64-4.73-6.63-5.9-11.34-4.84,3.74-9.44,6.98-13.65,10.65-2.85,2.49-4.63,1.9-7.01-.59-7.24-7.57-9.07-16.18-2.45-24.75,6.27-8.12,8.92-15.14,2.18-23.9-1.49-1.94-.57-3.5,2.09-3.39,4.36.19,8.2-1.16,11.5-3.94,1.46-1.23,2.66-.66,4.08-.06,2.28.98,4.62,1.87,6.97,2.65,4.1,1.36,8.24,2.53,12.4-.96-6.62,12.21-2.91,25.13-3.82,37.63-.06.82-.02,1.66.02,2.49.31,7.04,1.16,7.76,8.19,7.18Zm-20.01-13.18c-.53-2.8,1.55-6.45-2.55-8.22-3.04-1.31-6.07-2.64-9.04-4.1-1.72-.84-2.64-.43-3.51,1.23-3.4,6.46-2.75,15.18,1.66,20.68,3.77,4.7,4.05,4.44,9.06,1.08,4.09-2.74,5.07-6.2,4.38-10.67Zm.04-17.32c-1.26-1.78,2.07-5.65-2.21-7.12-4.71-1.62-9.5-3-14.28-4.4-1.45-.43-3.07-.35-1.98,1.78,2.94,5.73,4.23,12.46,11.81,14.99,6.85,2.29,6.66,2.85,6.66-5.25Z"/>
      <path class="cls-1" d="m894.88,175.43c-6.63,13.28-2.97,27.23-3.47,40.78-.24,6.4,1.3,7.12,8.03,6.44-3.98,3.15-7.92,6.38-11.99,9.41-.89.66-1.83-.44-2.56-1.08-2.57-2.23-4.56-4.84-5.06-8.32-.41-2.83-1.56-2.76-3.53-1.17-3.87,3.13-7.95,6.01-11.75,9.22-2.12,1.79-3.55,1.53-5.5-.28-7.4-6.86-9.01-14.79-4.49-23.84.88-1.77,1.75-3.74,3.16-5.03,6.29-5.71,5.66-11.5,1.44-18.21-3.15-5-2.69-5.32,3.18-5.81,2.37-.2,4.86-.57,6.53-2.13,3.27-3.05,6.24-2.01,9.82-.63,5.09,1.96,10.4,5.1,16.18.65Zm-15.46,34.13c-.66-2.65,1.58-6.17-2.02-8.02-3.24-1.66-6.64-2.99-9.92-4.57-1.61-.77-2.51-.2-3.08,1.25-2.71,6.94-3.59,13.81,1.15,20.3,3.79,5.19,4.46,4.96,9.75,1.34,3.94-2.7,4.64-6.08,4.12-10.3Zm.02-17.39c-.89-2.04,1.82-5.64-1.91-7.05-4.79-1.8-9.76-3.11-14.67-4.57-1.29-.38-2.74-.01-1.88,1.62,2.9,5.5,3.83,12.2,11.14,14.84,7.5,2.71,7.32,3.22,7.32-4.85Z"/>
      <path class="cls-1" d="m985.84,185.59c4.9-3.82,9.53-7.21,13.9-10.92,2.52-2.14,3.95-1.8,5.89.78,9.46,12.58,7.99,26.4-4.34,37.18-7.54,6.6-16.4,11.3-24.87,16.56-2.25,1.4-4.54,2.84-6.42,4.67-4.03,3.93-3.21,8.75,1.71,11.47,5.09,2.82,10.86,1.79,14.62-2.7,1-1.19,1.96-2.31,3.71-1.99.86.16,1.55.68,1.68,1.6.26,1.78-1.01,2.69-2.2,3.61-4.9,3.77-14.12,4.23-19.44.98-5.74-3.51-6.95-10.16-2-15.25,4.49-4.62,5.74-9.81,5.6-15.85-.2-9.13.06-18.27-.35-27.39-.27-5.89-1.39-6.45-7.68-6.4,3.62-2.94,6.85-6.82,10.98-8.52,3.62-1.5,5.88,2.7,7.52,5.66.91,1.64,1,3.73,1.67,6.51Zm-.64,18.45c0,4.47.01,8.94,0,13.42,0,2.12.66,2.64,2.68,1.54,10.89-5.91,15.49-22.54,9.32-33.02-2.13-3.62-3.76-3.92-7.16-1.3-3.48,2.69-5.45,5.4-4.91,9.93.37,3.1.07,6.29.08,9.43Z"/>
      <path class="cls-1" d="m730.39,274.5c-6.31,3.93-6.27,9.06-6.12,14.27.3,9.95.51,19.9.77,29.85.08,3.03.36,5.91,4.88,4.12-.47,2.22-1.95,3.16-3.14,4.21-1.39,1.23-2.33,3.84-4.69,2.94-2.33-.88-3.4-3.2-3.54-5.62-.27-4.77-2.13-3.25-4.35-1.28-2.73,2.42-5.24,6-8.4,6.76-3.34.8-5.93-3.6-9.28-4.98-.92-.38-1.75-.98-2.68-1.3-3.65-1.25-4.82-.22-4.13,3.69.22,1.26,1.2,2.94-.9,3.05-1.76.1-1.59-1.79-1.64-3.07-.07-2.23.75-4.25,1.83-6.12,1.33-2.3,2.65-4.63,4.27-6.72,2.19-2.84,1.96-4.86-.55-7.65-6.99-7.78-7.13-19.09-.81-26.29,6.72-7.66,16.89-9.02,26.14-3.13,2.72,1.73,4.56,2.02,6.7-.58.89-1.08,2.08-2.16,5.63-2.15Zm-32.45,17.54c1.58-5.63,4.57-7.81,9.92-6.89,1.99.34,3.89.67,4.48-1.63.74-2.88-2.1-2.53-3.54-2.97-6.74-2.08-14.49,1.38-17.75,7.7-3.16,6.12-1.54,14.26,3.48,18.76,1.96,1.76,2.75.82,3.75-.82,2.26-3.68,4.66-7.27,6.86-10.99.76-1.28,2.69-2.7.89-4.31-1.45-1.29-3.37-1.09-5.18-.29-.99.44-1.45,1.95-2.91,1.45Zm19.47,3.69c0-2.81.03-5.63-.01-8.44-.02-1.44-.75-2.68-2.03-3.17-1.78-.68-2.14,1.15-2.78,2.13-2.89,4.44-5.75,8.9-8.43,13.46-1.02,1.74-3.57,3.45-2.28,5.5,1.03,1.63,3.7.65,5.63.66,10.22.08,10.22.04,9.9-10.15Zm.69,19.13c-.1-1.36.12-3.4-2.23-3.45-5.95-.12-11.91-.1-17.86.03-1.95.04-2.67,1.88-3.22,3.39-.78,2.14,1.36,2.31,2.5,2.93,3.05,1.66,6.18,3.17,9.3,4.69,4.59,2.23,11.48-2.17,11.51-7.59Z"/>
      <path class="cls-1" d="m372.63,220.77c-5.3,4.14-9.67,7.58-14.06,10.98-1.49,1.16-2.45-.13-3.45-.9-3.17-2.43-6.37-4.82-10.22-6.08-2.39-.78-2.35-1.89-.72-3.46,1.94-1.88,2.34-4.32,2.34-6.87.01-8.79.12-17.59-.03-26.38-.1-5.72-1.54-6.59-7.81-5.68,3.74-3.14,7.06-7.36,11.37-9.04,3.03-1.18,5.91,3.17,7.25,6.26,1.35,3.12,2.42,2.92,4.42.91.94-.94,1.97-1.79,3.05-2.56,2.24-1.6,4.11-5.39,6.57-4.6,3.35,1.06,4.98,5.09,7.38,7.82,1.05,1.19.35,2.13-.59,2.96-1.5,1.31-3.08,2.54-4.5,3.94-1.78,1.75-3.14,1.36-4.42-.54-.56-.82-1.16-1.64-1.87-2.33-1.24-1.19-1.91-3.96-3.97-3.06-2.28.99-4.94,2.54-4.97,5.65-.1,9.96-.24,19.92.06,29.87.13,4.37,5.92,6.57,9.55,4.02.89-.63,1.62-1.65,4.63-.89Z"/>
      <path class="cls-1" d="m422.86,280.5c-3.4,4.4-6.78,8.7-7.93,14.46-1.13,5.64-.5,10.91,1.68,16.07.53,1.26.77,3.48,2.58,3.17,1.83-.31,2.19-2.44,2.25-4.07.18-4.65.77-9.4.08-13.94-1.68-10.97,7.84-14.37,13.22-20.55.97-1.11,2.45-.12,3.73.3,2.36.78,4.85,1.17,7.18,2.02,1.52.55,4.81-.75,4.29,1.7-.55,2.58-2.53,5.77-6.2,5.29-2.42-.32-4.77-1.43-7.05-2.42-2.27-.99-3.41-.8-3.38,2.02.12,11.97.18,23.94.21,35.91,0,3.14,1.46,3.93,4.44,3.56,5.13-.63,8.9-3.88,13.32-6.78-3.83,11.64-19,17.05-29.91,10.85-9.02-5.13-12.41-13.75-12.42-23.54-.02-10.46,4.88-18.56,13.9-24.04Zm9.51,1.05c-4.94,2.07-4.16,5.16-4.21,7.86-.18,9.14,1.75,18.65-6.99,25.73-2.64,2.14.99,4.03,2.58,5.24,2.27,1.73,4.71,3.91,7.99,2.52.45-.19.6-1.5.6-2.29.04-12.75.03-25.51.03-39.07Z"/>
      <path class="cls-1" d="m219.85,223.13c-3.88,2.9-7.75,5.81-11.65,8.69-1.46,1.07-2.48-.09-3.5-.87-3.98-3.03-4.84-7.34-4.85-11.97-.03-9.95,0-19.9-.05-29.85,0-1.62.55-3.44-.73-4.78-2.05-2.14-4.31-4.12-.27-6.47,3.36-1.96,5.79-8.04,10.87-2.35,1.09,1.22,2.48,2.21,3.83,3.17,1.83,1.3,1.88,2.62.16,3.94-2.26,1.73-2.47,4.09-2.44,6.67.07,8.62-.02,17.25.05,25.87.06,8.16.5,8.5,8.58,7.94Z"/>
      <path class="cls-1" d="m456.27,278.23c4.58,5.41,7.49-1.26,11.83-1.11-4.67,6.68-2.59,13.91-3.02,21.44,3.53-1.08,5.25-3.63,7.24-5.61,2.59-2.58,4.22-1.68,5.93.78,1.73,2.47,1.75,5.35,1.83,8.13.15,5.47.09,10.96.06,16.43-.07,11.77-6.01,19.2-17.79,22.29.08-.28.07-.72.24-.79,8.8-3.94,11.81-10.87,11.04-20.17-.45-5.44-.04-10.95-.11-16.43-.03-2.47.09-5.84-3.02-5.88-2.5-.04-5.13,2.61-5.19,5.23-.17,7.08-1.42,14.3.67,21.23,1.02,3.36-1.53,3.98-2.94,5.51-1.44,1.56-2.71.44-3.77-.69-1.36-1.45-3.96-2.53-1.72-5.21.78-.94.94-2.08.94-3.28-.03-11.46-.05-22.91-.07-34.37,0-2.57-1.01-4.82-2.16-7.51Z"/>
      <path class="cls-1" d="m411.01,223.27c-3.89,2.9-7.75,5.83-11.67,8.68-1.25.91-2.19-.15-3.05-.88-2.61-2.21-4.41-4.81-4.71-8.42-.94-11.1-.18-22.22-.46-33.32-.05-1.79.37-3.69-.94-5.26-1.51-1.8-4.37-3.73-.47-5.68,3.34-1.67,5.21-8.65,10.76-3.3,1.07,1.03,2.24,2,3.47,2.83,2.36,1.59,3.37,3.19.57,5.3-1.82,1.37-1.87,3.35-1.86,5.39.03,8.96-.03,17.92.04,26.87.06,7.72.63,8.19,8.32,7.78Z"/>
      <path class="cls-1" d="m663.07,292.81c0,9.06-.11,17.65.06,26.23.06,3.3-.44,5.79-4,6.98-1.52.51-2.92,1.61-4.14,2.7-1.61,1.45-3.1,1.79-4.82.34-.13-.11-.27-.23-.42-.27-7.83-1.88-10.15-6.74-8.51-14.43.74-3.49.19-7.28.11-10.93-.07-3.51-.33-6.69,4.07-8.43,3.33-1.32.29-2.87-.86-3.78-3.14-2.51-6.36-4.67-5.62-9.61.45-2.98,1.32-3,3.33-1.38,4.92,3.96,9.84,7.9,14.78,11.83,1.89,1.5,3.61,4.15,6.01.74Zm-6.61,19.12c0-2.32-.26-4.67.06-6.94.52-3.72-1.48-5.78-4.18-7.71-2.83-2.01-4.3-1.41-4.36,2.03-.09,5.29.31,10.62-.15,15.87-.41,4.6,1.95,6.51,5.62,8.01,2.1.86,3.08.66,3.03-1.83-.07-3.14-.02-6.28,0-9.43Z"/>
      <path class="cls-1" d="m872.51,324.82c-2.33,1.77-3.58,5.86-6.79,4.78-3.2-1.08-3.41-5.02-3.45-8.23-.08-6.14-.11-12.29-.01-18.44.04-2.8-.89-5.72-3.48-5.77-2.78-.06-5.37,2.65-5.31,5.59.17,7.21-1.58,14.55,1.15,21.64,1,2.6-1.72,3.23-2.87,4.65-1.24,1.53-2.66,1.13-3.8-.19-1.17-1.37-3.43-1.93-2.49-4.76,2.69-8.07.97-16.38.93-24.6,0-2-4.84-3.18-.57-6.06,3.69-2.5,5.65-2.75,6.9,1.55,1.2,4.14,2.48,2.84,4.42.89.82-.82,1.78-1.52,2.54-2.39,2-2.3,3.92-2.98,5.9.01,1.44,2.17,3.21,2.56,5.76-.17-4.32,9.57-3.45,29.26,1.17,31.5Z"/>
      <path class="cls-1" d="m977.12,329.44c2.28-3.41,4.47-6.89,6.87-10.22,1.79-2.48,1.27-3.88-1.28-5.52-5.67-3.65-5-14.08-.05-18.4,4.27-3.72,7.7-3.92,12.63-1.85,4.62,1.94,6.42-.21,5.1-5.14-.38-1.42-.49-2.92,1.13-3.27,1.65-.36,2.18,1.14,2.33,2.54.37,3.24-1.41,5.7-3.06,8.2-1.01,1.52-1.94,3.12-3.13,4.49-2.51,2.89-2.66,5.18,1.3,6.78,2.87,1.16,3.88,3.29,3.62,6.32-.2,2.31-.2,4.66,0,6.96.26,3.1-.71,4.99-3.93,5.84-1.51.4-2.81,1.7-4.13,2.7-1.08.82-2.04,1.79-3.52.88-4.42-2.74-8.79-2.05-13.13.67-.25-.33-.5-.65-.75-.98Zm7.04-7.33c3.49-.31,6.46-.36,9.26,1.04.71.35,1.52.66,2.23-.18,1.29-1.52,0-9.32-1.71-10.6-1.74-1.3-3.22-1.6-4.49.61-1.64,2.85-3.95,5.3-5.28,9.13Zm11.6-22.39c-2.88-.26-5.36-.42-7.63-1.57-1.04-.53-2.46-1.06-2.67.72-.3,2.6-.71,5.36.27,7.83,1.11,2.8,4.31,2.93,6,.32,1.41-2.17,3.22-4.16,4.02-7.3Z"/>
      <path class="cls-1" d="m936.4,297.88c2.07-.35,3.06-1.81,4.17-2.97,2.71-2.81,5.23-5.36,8.41-.5,1.35,2.06,2.85.36,4.91-.5-3.58,5.34-2.81,10.85-2.47,16.13.31,4.88-2.31,10.63,3.05,15.24.12-.52.16-.09-.04.07-1.97,1.6-3.35,5.2-6.06,4.33-3.38-1.09-3.5-4.88-3.53-8.09-.05-5.97-.1-11.94-.02-17.91.04-3.05-.6-6.49-3.78-6.46-2.8.02-5.37,2.76-5.13,6.27.48,7.03-1.33,14.16,1.17,21.14.93,2.6-2.05,3.45-3.45,4.89-1.34,1.37-2.5.16-3.33-.81-1.15-1.34-3.32-1.84-2.33-4.75,2.73-8.02,1.23-16.35.77-24.54-.11-2.06-4.28-3.37-.24-6.31,3.35-2.44,4.88-1.83,6.49,1.26.58,1.12.95,2.36,1.4,3.51Z"/>
      <path class="cls-1" d="m827.74,322.44c-3.41,1.7-5.45,4.17-7.72,6.29-1.84,1.72-2.98,1.38-4.44-.38-1.92-2.32-2.6-4.95-2.6-7.86,0-5.15.15-10.31-.08-15.46-.11-2.55,1.41-5.71-2.35-7.37-1.33-.59.01-1.81.68-2.28,1.81-1.27,2.79-4.91,5.11-3.79,2,.96,5.21,2.04,3.84,6.64-2.17,7.32-.86,15.14-.56,22.75.06,1.49,1.3,3.4,2.79,2.92,2.48-.8,5.43-2.54,5.54-5.18.31-6.9,1.67-14.04-.75-20.69-1.25-3.45,1.28-3.97,2.5-5.59,1.13-1.51,2.61-1.48,3.74,0,1.21,1.59,3.47,2.03,2.41,5.54-2.41,7.99-.91,16.41-.76,24.67.03,1.77,4.78,1.59,1.6,4.24-1.46,1.21-2.6,3.75-4.77,2.97-2.98-1.06-3.23-4.34-4.19-7.42Z"/>
      <path class="cls-1" d="m802.81,310.25c0,1.49-.29,3.06.05,4.47,1.87,7.91-2.77,11.7-8.94,14.76-1.46.73-2.36.3-3.65-.17-7.08-2.58-11.92-6.25-9.23-15,.75-2.43.59-5.38.03-7.91-1.71-7.74,2.79-11.42,8.69-14.52,1.41-.74,2.35-.53,3.65.06q9.39,4.3,9.4,14.81c0,1.16,0,2.32,0,3.49Zm-6.56,2.17h-.03c0-3.32.3-6.67-.08-9.94-.42-3.7-4.03-4.5-6.68-4.76-3.02-.3-1.85,2.87-1.9,4.56-.17,5.14-.12,10.28-.02,15.42.05,2.64,4.59,6.68,7.2,6.06,3.14-.74,1.1-3.55,1.43-5.39.35-1.93.08-3.97.08-5.96Z"/>
      <path class="cls-1" d="m509.25,293.24c-3.75,10.54-2.67,29.45,1.87,31.09-1.88,2.34-3.53,5.67-6.44,5.42-2.99-.26-3.27-4.15-4.67-7.38-2.33,2.11-4.57,3.92-6.54,5.98-2.27,2.38-3.78,1.75-5.48-.66-4.14-5.86-3.3-11.79.33-17.21,2.89-4.3,3.75-8.18.95-12.69-1.39-2.23-.49-2.71,1.89-3.98,4.73-2.52,8.8-2.39,13.25,0,1.42.76,2.87-.01,4.84-.57Zm-8.6,22.4c.04-4.46-3.61-9.43-6.76-8.38-3.87,1.29-2.73,5.42-2.87,8.53-.06,1.26.43,2.64,1.01,3.8.92,1.83,1.71,4.71,4.21,3.99,2.2-.64,4.24-2.6,4.4-5.46.05-.82,0-1.65,0-2.48Zm-.02-11.8c1.2-5.89-3.82-5.59-6.99-7.06-.97-.45-2.87-1.12-2.94.25-.16,3.2,1.49,5.99,3.5,8.46.4.49,1.05.83,1.65,1.07,1.33.53,2.57,2.14,4.03,1.33,1.5-.84.54-2.71.76-4.04Z"/>
      <path class="cls-1" d="m908.29,323.09c-.72.91-1.28,2.03-2.19,2.68-1.93,1.38-3.1,4.8-5.79,3.9-2.71-.9-3.88-3.97-4.63-6.72-1.27-4.66.06-9.06,2.76-12.71,3.01-4.07,3.73-7.82,1.02-12.2-1.34-2.16-.61-2.63,1.75-4.31,6.29-4.49,11.56.97,17.45.26-2.6,8.63-1.11,17.4-1.39,26.1-.08,2.39.64,4.35,4.31,3.63-.79,1.11-1.08,1.68-1.52,2.11-5.36,5.42-5.43,5.45-9.04-1.39-.83-1.57-1.73-1.79-3.17-1.23,2.93-2.6,3.18-6.01,2.91-9.59-.2-2.77-4.37-6.98-6.9-6.48-3.06.6-2.3,3.66-2.74,5.7-.66,3.01.32,5.91,1.88,8.57,1.27,2.17,2.89,3.16,5.3,1.67Zm2.47-19.07c.03-4.12-4.45-8.04-8.76-7.76-1.47.1-1.73.91-1.3,1.95,1.3,3.14,1.81,6.72,5.38,8.56,4.2,2.16,4.64,1.99,4.68-2.75Z"/>
      <path class="cls-1" d="m633.62,323.34c-2.48,2.08-4.9,4.22-7.44,6.22-2.35,1.84-3.91-.75-5.85-1.22-4.27-1.03-6.32-2.59-5.2-7.97,1.19-5.72.51-11.89.22-17.84-.19-3.96.94-6.22,4.77-7.95,7.55-3.41,7.49-3.73,12.38,3.02,4.48,6.17,4.74,4.5-1.06,9.41-1.9,1.61-3.72,3.35-5.8,4.69-3.84,2.47-4.84,5.91-3.13,9.8,1.23,2.8,7.22,3.37,11.12,1.86Zm-11-28.17c-1.19,5.39-.59,9.77-.64,14.11,0,.65.22,1.61.94,1.46,2.54-.51,4.01-2.71,5.95-4.17,1.12-.84,1.06-1.99.25-3.05-1.96-2.55-3.95-5.08-6.5-8.35Z"/>
      <path class="cls-1" d="m579.67,324.31c-1.22,1.09-2.55,2.08-3.64,3.28-2.54,2.77-4.9,2.34-8.3,1.03-4.43-1.71-6.35-3.09-5.26-8.49,1.13-5.58.57-11.59.2-17.37-.28-4.26,1.11-6.54,5.06-8.35,7.2-3.29,7.08-3.57,11.77,2.81q4.22,5.73-1.31,10.21c-1.81,1.46-3.48,3.14-5.43,4.36-3.77,2.35-4.97,6.16-2.98,9.33,1.83,2.91,5.58,4.9,9.9,3.18Zm-10.49-29.02c0,4.41-.07,7.78.03,11.15.04,1.4-.73,3.66.74,4.02,2.49.6,3.76-2.16,5.62-3.36,1.1-.71,2.23-1.72,1.06-3.23-2.06-2.66-3.77-5.64-7.46-8.58Z"/>
      <path class="cls-1" d="m884.82,282.26c1.68,1.46,1.11,2.87,1.06,4.08-.12,3.1-.57,6.21,4.19,5.85,1.35-.1,2.05.92,1.96,2.31-.11,1.61-1.33,1.83-2.5,1.71-3.76-.39-3.86,1.95-3.82,4.68.08,5.63.17,11.26-.03,16.89-.13,3.82,1.07,6.35,5.53,6.98-.79.89-1.21,1.62-1.85,2.04-1.59,1.03-2.54,3.91-4.68,3-2.52-1.07-4.62-3.14-6.84-4.86-.26-.2-.3-.98-.14-1.38,2.86-7.22.89-14.75,1.37-22.11.13-1.94.91-4.38-2.05-5.43-1.33-.47-.62-1.7-.09-2.47,2.57-3.75,5.21-7.45,7.88-11.26Z"/>
      <path class="cls-1" d="m532.67,324c-.55.6-1.08,1.23-1.66,1.8-4.99,4.9-7.63,4.8-12.36-.38-.64-.7-.78-1.25-.43-2.16,2.85-7.37.84-15.05,1.3-22.58.13-2.12-.56-4.03-3.63-3.44,5.54-7.67,6.03-7.68,11.69.63.96-1.45,1.6-2.9,2.66-3.9,1.32-1.23,2.56-4.36,4.92-1.09,1.57,2.17,4.08,4.18.75,7.11-1.81,1.59-2.89,1.87-4.23-.3-.66-1.07-1.28-2.74-2.85-2.32-1.47.39-2.49,1.78-2.51,3.37-.09,6.62-.36,13.27.07,19.87.22,3.41,2.8,4.53,6.28,3.39Z"/>
      <path class="cls-1" d="m744.05,299.1c0,6.85-.14,13.78.06,20.7.1,3.45,4.61,5.45,9.01,4.3-5.79,7.03-8.97,7.5-15.99,2.44-.76-.55-1.18-1.06-.89-2.02,2.42-7.78.61-15.77,1.14-23.64.17-2.54,5.57-9.77,7.94-9.63,3.03.17,5.31,2.52,7.39,4.51,1.3,1.24-.27,2.81-1.07,3.94-2.68,3.79-4.37-1.3-7.6-.6Z"/>
      <path class="cls-1" d="m776.61,323.48c-1.74,1.6-2.44,2.29-3.18,2.93-4.19,3.66-10.19,3.62-14.28-.04-.53-.48-.93-.96-.72-1.68,2.32-7.81.98-15.81.98-23.7,0-5.44,4.46-6.65,7.34-9.14,2.37-2.05,4.22,1.46,6.34,2.38,2.34,1.02,2.48,2.58,1.24,4.8-1.35,2.41-2.75,2.5-4.73.96-2.88-2.24-3.53-.94-3.46,2.06.12,5.14.02,10.28.04,15.42.02,5.74,3.67,8.26,10.43,6.02Z"/>
      <path class="cls-1" d="m966.68,281.7c2.02,2.41,1.66,3.79,1.57,5.04-.21,3.1-.15,5.78,4.17,5.39,1.29-.12,2.22.56,2.27,2.04.07,1.95-1.28,2.18-2.66,2.04-3.18-.33-3.99,1.21-3.92,4.11.14,6.15.1,12.3.03,18.45-.04,3.68,1.66,5.53,5.34,5.69.01,1.37-1.12,2.03-2,2.62-1.66,1.11-2.85,4.74-5.53,1.82-2.04-2.22-6.85-1.95-4.98-7.9,2.22-7.05,2.9-15.89.14-22.06-4.04-9.06,4.79-10.64,5.56-17.24Z"/>
      <path class="cls-1" d="m557.06,324.59c-1.67,1.34-2.38,2.07-3.23,2.56-1.64.93-2.74,4.51-5.12,2-2.15-2.25-7.27-1.98-5.33-8.2,2.2-7.04,2.81-15.81.13-22.08-3.84-8.97,4.66-10.61,5.58-16.62,2.31,1.84,1.55,3.62,1.49,5.11-.12,2.84.15,5.02,3.83,4.74,1.41-.11,2.67.29,2.69,2.14.03,1.99-1.39,2.1-2.73,1.97-3.21-.33-3.95,1.26-3.89,4.13.14,6.15.11,12.3.02,18.45-.05,3.7,1.73,5.47,6.55,5.79Z"/>
      <path class="cls-1" d="m598.11,296.74c1.62-.43,2.27-1.97,3.49-2.79,1.47-.99,2.45-4.45,4.94-1.13,1.79,2.39,4.04,4.57.45,7.49-1.9,1.54-2.72,1.09-3.86-.61-.69-1.03-1.21-2.7-2.89-2.27-1.57.4-2.58,1.85-2.61,3.34-.15,6.65-.38,13.32.06,19.93.18,2.78,2.55,4.44,6.94,2.61-1.74,1.86-2.41,2.82-3.3,3.49-1.52,1.14-2.62,3.88-4.68,3.03-2.53-1.04-4.63-3.15-6.85-4.88-.28-.22-.38-1-.22-1.38,2.78-6.75.95-13.8,1.32-20.7.11-2.08.84-4.71-2.33-5.88-1.11-.41-.89-1.09,1.7-3.49,1.35-1.25,2.64-3.6,4.8-1.05,1.13,1.33,2.04,2.85,3.04,4.29Z"/>
      <path class="cls-1" d="m321.44,93.77c.14-7.75,2.52-12.27,6.46-12.29,4.27-.02,8.56,5.12,8.38,10.04-.18,4.85-4.24,9.19-8.63,9.23-4.35.04-6.3-2.15-6.21-6.97Z"/>
      <path class="cls-1" d="m399.22,165.62c-.37-4.51.84-7.92,1.98-11.19.9-2.58,3.91-2.09,5.6-1.29,2.01.95-.02,2.55-.69,3.55-1.94,2.88-3.35,6.24-6.89,8.93Z"/>
      <path class="cls-1" d="m208.11,165.36c-.81-4.35.64-7.76,1.79-11.03.93-2.65,3.94-1.96,5.56-1.07,1.9,1.05-.2,2.58-.89,3.58-1.91,2.75-3.13,6.08-6.46,8.52Z"/>
    </g>
  </g>
</svg>