<?xml version="1.0" encoding="UTF-8"?>
<svg id="Layer_2" data-name="Layer 2" xmlns="http://www.w3.org/2000/svg" viewBox="0 0 260.5 82.95">
  <defs>
    <style>
      .cls-1 {
        letter-spacing: -.02em;
      }

      .cls-2, .cls-3, .cls-4 {
        fill: #fff;
      }

      .cls-3 {
        font-size: 27.69px;
      }

      .cls-3, .cls-4 {
        font-family: TimesNewRomanPS-BoldMT, 'Times New Roman';
        font-weight: 700;
      }

      .cls-5 {
        letter-spacing: -.06em;
      }

      .cls-4 {
        font-size: 18.46px;
      }
    </style>
  </defs>
  <g id="Layer_1-2" data-name="Layer 1">
    <g>
      <g>
        <text class="cls-3" transform="translate(0 56.8)"><tspan x="0" y="0">Adhikari &amp; Company</tspan></text>
        <text class="cls-4" transform="translate(76.78 77.29)"><tspan x="0" y="0">Charte</tspan><tspan class="cls-1" x="55.35" y="0">r</tspan><tspan x="63.21" y="0">ed</tspan><tspan class="cls-5" x="81.67" y="0"> </tspan><tspan x="85.27" y="0">Accountants</tspan></text>
      </g>
      <g>
        <g>
          <path class="cls-2" d="m26.29,10.02v16.07l-1.34-.92c-.52-1.88-1.66-3.78-3.42-5.69-1.15,1.37-2.59,2.06-4.31,2.06-2.49,0-4.73-1.36-6.7-4.09-1.55-2.09-2.62-4.57-3.21-7.44l1.83.65c1.04,2.5,1.94,4.22,2.72,5.16,1.34,1.64,3.02,2.46,5.04,2.46.85,0,1.56-.21,2.14-.61.58-.41.86-.97.86-1.69,0-.39-.11-.85-.32-1.38-.26-.66-.55-1.04-.88-1.14-.49,1.05-1.37,1.57-2.65,1.57-.82,0-1.56-.23-2.2-.68s-.97-1.04-.97-1.75c0-.8.41-1.41,1.23-1.84.68-.39,1.51-.58,2.47-.58,1.69,0,3.18.61,4.45,1.81,1.2,1.17,1.8,2.5,1.8,4v.8l.95,1.78v-8.55H7.2l-2.46-2.15h22.58l2.51,2.15h-3.53Z"/>
          <path class="cls-2" d="m43.78,4.79c-1.74-1.15-3.73-1.72-5.96-1.72-1.22,0-2.56.42-4.02,1.26-.33.29-.72.7-1.16,1.23-.52.61-.77,1.01-.74,1.2l.6,1.1h3.18l2.47,2.15h-4.94v15.98l-2.5-2.09v-13.89h-2.38l-2.45-2.15h4.58c-.31-.26-.6-.55-.9-.85-.29-.3-.44-.63-.44-1,.02-.62.15-1.1.39-1.45.66-.92,1.26-1.6,1.8-2.04.54-.44,1.36-.89,2.47-1.34.68-.29,1.49-.43,2.43-.43,2.33,0,4.81.71,7.45,2.12.82.45,1.91,1.28,3.28,2.49l.78,2-3.92-2.58Z"/>
          <path class="cls-2" d="m40.29,13.43c-1.29-.14-2.19-.66-2.68-1.54-.31-.53-.46-1.01-.46-1.44,0-1.07.49-1.84,1.48-2.34.7-.35,1.41-.49,2.11-.43,1.44.1,2.17.62,2.19,1.54,0,.45-.14.82-.42,1.11s-.69.43-1.24.43c-.45,0-.87-.09-1.27-.27-.16.55.01.99.53,1.32.42.27.87.4,1.33.4.14,0,.27-.02.39-.06.12-.04.28-.1.49-.18,1.05-.53,2.29-1.18,3.72-1.94v-2.15h4.93l2.48,2.15h-4.9v17.06l-1.13-1.81-.74-1.57c-.24-.47-.72-1.06-1.46-1.77s-1.38-1.21-1.92-1.52c-1.04-.57-1.83-.95-2.4-1.14-.66-.21-1.55-.37-2.68-.49l-2.4-2.76c1.53-1,2.88-1.87,4.06-2.58Zm6.17.03c-1.73.66-3.49,1.66-5.29,3.01,2.2.96,3.96,2.25,5.29,3.87v-6.88Z"/>
          <path class="cls-2" d="m63.82,10.02v.49c1.46,0,2.85.54,4.15,1.63,1.21,1.03,1.97,2.18,2.3,3.47.12.49.18.94.18,1.35,0,.86-.28,1.61-.85,2.24-.61.7-1.4,1.04-2.36,1.04-.68,0-1.29-.21-1.83-.64-.54-.43-.81-.94-.81-1.54,0-.68.39-1.29,1.16-1.84.45-.12.85-.18,1.2-.18.68,0,1.34.27,1.98.8.12.08.17.17.17.27.02.23-.28.34-.92.34.16-.29.25-.48.25-.58,0-.86-.42-1.66-1.27-2.4-.96-.84-2.08-1.25-3.35-1.23v12.72l-1.31-1.14c-.38-.98-.64-1.59-.78-1.81-.24-.45-.66-.99-1.27-1.63-.75-.78-1.43-1.33-2.05-1.66-1.34-.72-2.77-1.16-4.3-1.32l-2.75-2.92c2.99-2.15,6.33-3.75,10.02-4.79v-.68h-10.52l-2.49-2.15h22.97l2.44,2.15h-9.95Zm-5.96,4.92c-.26.16-.84.52-1.73,1.08,2.24.92,3.99,2.23,5.26,3.93v-6.49c-1.51.51-2.68,1-3.53,1.47Z"/>
          <path class="cls-2" d="m73.95,9.5c-.14-1.43-.21-3.01-.21-4.73l1.36.98c.12.66.28,1.21.49,1.66.09.12.22.27.38.46h2.62l2.45,2.15h-4.9v16.63l-2.4-2.27v-11.63c0-.61-.14-1.09-.42-1.44-.68-.86-1.53-1.29-2.54-1.29h-.57l-2.47-2.09c1.58-.14,2.77-.16,3.6-.06,1.13.14,2,.69,2.61,1.63Z"/>
          <path class="cls-2" d="m91.44,10.02v15.98l-1.31-1.07c-1.15-1.82-1.79-2.82-1.9-2.98-.73-.96-1.67-1.74-2.82-2.34-1.36-.72-2.85-1.12-4.45-1.2l-2.61-3.1c3.66-2.27,7.18-3.87,10.58-4.79v-.49h-10.56l-2.5-2.15h17.67l2.51,2.15h-4.62Zm-7.06,14.32c-.63,0-1.17-.2-1.6-.6-.44-.4-.65-.86-.65-1.37s.2-.92.6-1.28c.4-.36.88-.54,1.45-.54.49,0,.95.14,1.38.43.42.29.69.64.81,1.07.14.55.01,1.07-.39,1.55-.4.48-.93.72-1.59.72Zm4.55-10.91c-2.03.63-3.95,1.52-5.75,2.64,2.52,1,4.44,2.42,5.75,4.24v-6.88Z"/>
          <path class="cls-2" d="m97.9,10.02v16.2l-2.44-2.15v-14.05h-2.01l-2.68-2.15h4.83l-.21-.8c-.1-.45-.58-1.18-1.45-2.18-1.53-1.78-4.16-2.67-7.9-2.67-.8,0-1.67.08-2.61.25-1.27.23-1.9.53-1.9.92,0,.29.43.44,1.31.46,2.59.08,4.02.14,4.3.18,2.89.35,4.36,1.49,4.41,3.41,0,.35-.08.76-.25,1.23h-3.14c1.01-.7,1.52-1.16,1.52-1.38,0-.47-.85-.75-2.54-.83-2-.08-3.03-.13-3.1-.15-.92-.1-1.84-.4-2.77-.91-.93-.5-1.4-1.22-1.4-2.17s.69-1.67,2.06-2.24c1.58-.66,3.19-.98,4.82-.98,1.18,0,2.7.26,4.57.77.85.25,1.85.78,3.01,1.6.66.47,1.3,1.12,1.91,1.95s1.04,1.6,1.27,2.32l.39,1.23h2.99l2.44,2.15h-5.43Z"/>
          <path class="cls-2" d="m126.55,24.83c-.17-.62-.51-1.38-1.03-2.3-.47-.47-1.2-.71-2.19-.71-.57,0-1.56.09-3,.28-1.25.16-2.25.22-3,.15-2.42-.18-4.12-1.07-5.08-2.64-.57-.94-.85-1.97-.85-3.07,0-1.58.28-2.86.85-3.84.21-.53.47-.8.78-.8.19,0,.35.07.49.22l.88.83c-.47.61-.75,1.08-.85,1.41-.07.18-.14.71-.21,1.57-.1,1,.27,1.87,1.09,2.58.33.29.93.51,1.8.68.78.16,1.44.22,1.98.15,1.1-.12,2-.18,2.68-.18,1.74,0,3.12.3,4.13.89.19.16.38.32.57.46v-10.51s-.06-.03-.18-.03c-.85,0-1.95.54-3.31,1.61-.73.59-1.22,1.24-1.48,1.95h.46c.59,0,1.05.21,1.38.61.33.41.49.87.49,1.38s-.17.94-.51,1.35c-.34.41-.77.66-1.29.74-.33.04-.63.06-.92.06-1.41,0-2.39-.49-2.93-1.47-.35-.63-.48-1.23-.39-1.78.42-2.27,1.77-4.12,4.02-5.53,1.32-.82,2.6-1.21,3.85-1.17.61.02,1.32.35,2.12.98s1.2,1.21,1.2,1.72v15.7l-1.55-1.29Z"/>
          <path class="cls-2" d="m138.33,14.14v.12c0,.39-.2.73-.6,1.03-.4.3-.84.44-1.31.44-1.36,0-2.12-.77-2.26-2.3-.07-.68.2-1.23.81-1.66.54-.39,1.19-.58,1.96-.58.86,0,1.67.44,2.42,1.32v-2.49h-8.83l-2.36-2.15h21.91l2.47,2.15h-10.69v5.38c0,.1.02.21.07.34.02.02.09.03.21.03s.44-.23.95-.68c.52-.45.8-.74.85-.86l1.83-2.3c1.43.94,2.37,2.32,2.82,4.12.12.49.18.96.18,1.41,0,1-.26,2.03-.78,3.07-1.11,2.27-3.25,3.4-6.42,3.38-1.44,0-2.85-.4-4.23-1.2-1.29-.76-2.32-1.7-3.07-2.83-.19-.29-.66-1.06-1.41-2.3-.49-1.07-1.25-3.58-2.26-7.56l2.43,2.12c.31,1.35.76,2.73,1.37,4.15.26.6.89,1.43,1.91,2.49,1.41,1.47,3.19,2.21,5.33,2.21,1.13,0,2.22-.28,3.28-.84.4-.21.87-.7,1.41-1.49.31-.64.47-1.07.49-1.3.05-.6-.07-1.14-.35-1.64-.4.56-1.14,1.14-2.22,1.74-.82.56-1.59.84-2.29.84-.92,0-1.61-.4-2.08-1.2l-.85-2.18c-.05-.08-.28-.35-.71-.8Z"/>
          <path class="cls-2" d="m166.2,23.3c-.19-.27-.33-.6-.42-.98,0-.8.29-1.4.88-1.81.26-.18.86-.3,1.8-.34.59-.02,1.11.2,1.57.66.46.46.69.95.69,1.46,0,.82-.33,1.52-1,2.09-.67.58-1.48.86-2.42.86-1.17,0-2.15-.28-2.93-.83-2.3-1.66-3.46-4.01-3.46-7.04,0-3.2,1.24-5.81,3.71-7.84,1.34-1.11,2.75-1.66,4.23-1.66l2.4,2.09c-2.12.18-3.83.86-5.15,2.03-1.83,1.64-2.75,3.74-2.75,6.3,0,.51.13,1.22.39,2.12.47,1.62,1.29,2.58,2.47,2.89Z"/>
          <path class="cls-2" d="m182.81,10.02v.49c1.46,0,2.85.54,4.15,1.63,1.21,1.03,1.97,2.18,2.3,3.47.12.49.18.94.18,1.35,0,.86-.28,1.61-.85,2.24-.61.7-1.4,1.04-2.36,1.04-.68,0-1.29-.21-1.83-.64-.54-.43-.81-.94-.81-1.54,0-.68.39-1.29,1.16-1.84.45-.12.85-.18,1.2-.18.68,0,1.34.27,1.98.8.12.08.17.17.17.27.02.23-.28.34-.92.34.16-.29.25-.48.25-.58,0-.86-.42-1.66-1.27-2.4-.96-.84-2.08-1.25-3.35-1.23v12.72l-1.31-1.14c-.38-.98-.64-1.59-.78-1.81-.24-.45-.66-.99-1.27-1.63-.75-.78-1.43-1.33-2.05-1.66-1.34-.72-2.77-1.16-4.3-1.32l-2.75-2.92c2.99-2.15,6.33-3.75,10.02-4.79v-.68h-10.52l-2.49-2.15h22.97l2.44,2.15h-9.95Zm-5.96,4.92c-.26.16-.84.52-1.73,1.08,2.24.92,3.99,2.23,5.26,3.93v-6.49c-1.51.51-2.68,1-3.53,1.47Z"/>
          <path class="cls-2" d="m192.94,9.5c-.14-1.43-.21-3.01-.21-4.73l1.36.98c.12.66.28,1.21.49,1.66.09.12.22.27.38.46h2.62l2.45,2.15h-4.9v16.63l-2.4-2.27v-11.63c0-.61-.14-1.09-.42-1.44-.68-.86-1.53-1.29-2.54-1.29h-.57l-2.47-2.09c1.58-.14,2.77-.16,3.6-.06,1.13.14,2,.69,2.61,1.63Z"/>
          <path class="cls-2" d="m211,10.02c.54.72.81,1.54.81,2.46,0,1.27-.42,2.37-1.27,3.29-.49.53-.95.88-1.37,1.05l-1.24.18c-1.48-.14-2.72-.63-3.71-1.48l-.78-.68c-.12.47-.4.86-.85,1.17-.45.31-.94.46-1.48.46-.12.02-.23.03-.35.03-.68,0-1.22-.22-1.61-.66-.39-.44-.58-.96-.58-1.55,0-1,.66-1.66,1.98-1.97.35-.06.53-.06.53,0l-.35-1.81c-.16-.35-.36-.51-.6-.49h-2.72l-2.51-2.15h18.63l2.44,2.15h-4.97Zm-2.65,0h-5.57l.6,1.17c0,.21.05.47.14.8.29.31.97.81,2.06,1.51.87.41,1.55.61,2.02.61.8,0,1.31-.17,1.52-.52.12-.18.18-.64.18-1.38.02-1.37-.3-2.1-.96-2.18Z"/>
          <path class="cls-2" d="m223.91,12.35l-.25-1.6-.25-5.5,1.62,1.01c.05.08.11.17.18.28.05.51.16.86.35,1.05l.49.27h.88c.59,0,.99.02,1.2.06l2.4,2.09h-4.59v16.01c-.68-.6-1.56-1.33-2.65-2.22l.25-8c-.34-.72-.72-1.44-1.15-2.15-.07-.14-.24-.3-.5-.46l-5.88,5.24-3.3-1.07,1.91-1.75c.14-.12.21-.35.21-.68,0-.84-.26-1.24-.78-1.2.05,0-.05-.03-.28-.09-.12.23-.74.45-1.87.68-.45.08-.88-.06-1.29-.42-.41-.36-.62-.73-.62-1.12,0-.31.12-.63.35-.98,1.67-2.42,3.93-3.65,6.77-3.69,1.48-.02,2.84.39,4.09,1.23,1.13.76,2.02,1.76,2.68,3.01Zm-7.27,1.66l3.28-2.83c-.75-.53-1.47-.8-2.15-.8-1.55,0-2.68.46-3.39,1.38,1.22.14,1.98.89,2.26,2.24Z"/>
          <path class="cls-2" d="m230.47,9.5c-.14-1.43-.21-3.01-.21-4.73l1.36.98c.12.66.28,1.21.49,1.66.09.12.22.27.39.46h2.62l2.45,2.15h-4.9v16.63l-2.4-2.27v-11.63c0-.61-.14-1.09-.42-1.44-.68-.86-1.53-1.29-2.54-1.29h-.57l-2.47-2.09c1.58-.14,2.77-.16,3.6-.06,1.13.14,2,.69,2.61,1.63Z"/>
          <path class="cls-2" d="m241.2,15.34c.42.53.69,1,.81,1.41.05.25.07.48.07.71,0,.66-.25,1.18-.74,1.58-.5.4-1.16.6-2.01.6-2.47,0-3.71-1.07-3.71-3.23,0-1.08.45-1.99,1.35-2.7.9-.72,1.99-1.08,3.25-1.08,2.27,0,4.21,1.23,5.8,3.69l.21.34v-6.64h-11.79l-2.46-2.15h19.19l2.58,2.15h-5.01v16.66l-1.34-1.6v-.52c0-.78-.22-1.81-.67-3.1-.35-1.17-.75-2.14-1.18-2.9-.43-.77-1.02-1.45-1.74-2.05-.87-.72-1.74-1.1-2.61-1.17Z"/>
          <path class="cls-2" d="m255.06,10.02v16.2l-2.44-2.15v-14.05h-2.01l-2.68-2.15h4.83l-.21-.8c-.1-.45-.58-1.18-1.45-2.18-1.53-1.78-4.16-2.67-7.9-2.67-.8,0-1.67.08-2.61.25-1.27.23-1.9.53-1.9.92,0,.29.43.44,1.31.46,2.59.08,4.02.14,4.3.18,2.89.35,4.36,1.49,4.41,3.41,0,.35-.08.76-.25,1.23h-3.14c1.01-.7,1.52-1.16,1.52-1.38,0-.47-.85-.75-2.54-.83-2-.08-3.03-.13-3.1-.15-.92-.1-1.84-.4-2.77-.91-.93-.5-1.4-1.22-1.4-2.17s.69-1.67,2.06-2.24c1.58-.66,3.19-.98,4.82-.98,1.18,0,2.7.26,4.57.77.85.25,1.85.78,3.01,1.6.66.47,1.3,1.12,1.91,1.95s1.04,1.6,1.27,2.32l.39,1.23h2.99l2.44,2.15h-5.43Z"/>
        </g>
        <rect class="cls-2" x="4.73" y="29.13" width="255.76" height="2.67" rx=".28" ry=".28"/>
      </g>
    </g>
  </g>
</svg>