<?xml version="1.0" encoding="UTF-8"?>
<svg id="Layer_2" data-name="Layer 2" xmlns="http://www.w3.org/2000/svg" viewBox="0 0 186.11 59.26">
  <defs>
    <style>
      .cls-1 {
        font-size: 13.19px;
      }

      .cls-1, .cls-2, .cls-3 {
        fill: #681436;
      }

      .cls-1, .cls-3 {
        font-family: TimesNewRomanPS-BoldMT, 'Times New Roman';
        font-weight: 700;
      }

      .cls-4 {
        letter-spacing: -.02em;
      }

      .cls-5 {
        letter-spacing: -.06em;
      }

      .cls-3 {
        font-size: 19.78px;
      }

      .cls-6 {
        letter-spacing: 0em;
      }
    </style>
  </defs>
  <g id="Layer_1-2" data-name="Layer 1">
    <g>
      <g>
        <text class="cls-3" transform="translate(0 40.58)"><tspan x="0" y="0">Adhikari &amp; Company</tspan></text>
        <text class="cls-1" transform="translate(54.86 55.22)"><tspan x="0" y="0">Charte</tspan><tspan class="cls-4" x="39.55" y="0">r</tspan><tspan x="45.16" y="0">ed</tspan><tspan class="cls-5" x="58.35" y="0"> </tspan><tspan class="cls-6" x="60.92" y="0">Accountants</tspan></text>
      </g>
      <g>
        <g>
          <path class="cls-2" d="m18.78,7.16v11.48l-.96-.66c-.37-1.35-1.18-2.7-2.44-4.06-.82.98-1.85,1.47-3.08,1.47-1.78,0-3.38-.97-4.79-2.92-1.11-1.49-1.87-3.26-2.29-5.31l1.31.46c.74,1.79,1.39,3.01,1.94,3.69.96,1.17,2.16,1.76,3.6,1.76.6,0,1.11-.15,1.53-.44.41-.29.62-.7.62-1.21,0-.28-.08-.61-.23-.99-.18-.47-.39-.74-.63-.81-.35.75-.98,1.12-1.89,1.12-.59,0-1.11-.16-1.57-.48s-.69-.74-.69-1.25c0-.57.29-1.01.88-1.32.49-.28,1.08-.42,1.76-.42,1.21,0,2.27.43,3.18,1.3.86.83,1.29,1.79,1.29,2.85v.57l.68,1.27v-6.11H5.14l-1.76-1.54h16.13l1.79,1.54h-2.52Z"/>
          <path class="cls-2" d="m31.28,3.43c-1.24-.82-2.66-1.23-4.26-1.23-.87,0-1.83.3-2.87.9-.23.2-.51.5-.83.88-.37.44-.55.73-.53.86l.43.79h2.27l1.76,1.54h-3.53v11.42l-1.79-1.49V7.16h-1.7l-1.75-1.54h3.27c-.22-.19-.43-.39-.64-.6-.21-.21-.31-.45-.31-.71.02-.44.11-.78.28-1.03.47-.66.9-1.15,1.28-1.46.39-.31.97-.63,1.76-.95.49-.21,1.07-.31,1.74-.31,1.66,0,3.44.5,5.32,1.51.59.32,1.37.92,2.34,1.78l.56,1.43-2.8-1.84Z"/>
          <path class="cls-2" d="m28.79,9.59c-.93-.1-1.56-.47-1.92-1.1-.22-.38-.33-.73-.33-1.03,0-.76.35-1.32,1.06-1.67.5-.25,1.01-.35,1.51-.31,1.03.07,1.55.44,1.56,1.1,0,.32-.1.59-.3.79s-.5.31-.88.31c-.32,0-.62-.06-.91-.2-.12.39,0,.71.38.94.3.19.62.29.95.29.1,0,.19-.01.28-.04.08-.03.2-.07.35-.13.75-.38,1.64-.84,2.66-1.38v-1.54h3.52l1.77,1.54h-3.5v12.19l-.81-1.3-.53-1.12c-.17-.34-.52-.76-1.05-1.26s-.99-.87-1.37-1.09c-.74-.41-1.31-.68-1.71-.81-.47-.15-1.11-.26-1.91-.35l-1.71-1.98c1.09-.72,2.06-1.33,2.9-1.84Zm4.41.02c-1.24.47-2.5,1.19-3.78,2.15,1.57.69,2.83,1.61,3.78,2.77v-4.92Z"/>
          <path class="cls-2" d="m45.6,7.16v.35c1.05,0,2.03.39,2.96,1.16.86.73,1.41,1.56,1.65,2.48.08.35.13.67.13.97,0,.61-.2,1.15-.61,1.6-.44.5-1,.75-1.69.75-.49,0-.92-.15-1.31-.46-.39-.31-.58-.67-.58-1.1,0-.48.28-.92.83-1.32.32-.09.6-.13.86-.13.49,0,.96.19,1.41.57.08.06.12.12.12.2.02.16-.2.24-.66.24.12-.21.18-.34.18-.42,0-.61-.3-1.19-.91-1.71-.69-.6-1.49-.89-2.39-.88v9.09l-.93-.81c-.27-.7-.46-1.13-.55-1.3-.17-.32-.47-.71-.91-1.16-.54-.56-1.02-.95-1.46-1.19-.96-.51-1.98-.83-3.07-.94l-1.97-2.09c2.13-1.54,4.52-2.68,7.16-3.42v-.48h-7.52l-1.78-1.54h16.41l1.74,1.54h-7.11Zm-4.26,3.51c-.19.12-.6.37-1.24.77,1.6.66,2.85,1.6,3.76,2.81v-4.63c-1.08.37-1.91.72-2.52,1.05Z"/>
          <path class="cls-2" d="m52.83,6.78c-.1-1.02-.15-2.15-.15-3.38l.97.7c.08.47.2.86.35,1.19.07.09.16.2.27.33h1.87l1.75,1.54h-3.5v11.88l-1.71-1.62v-8.31c0-.44-.1-.78-.3-1.03-.49-.61-1.09-.92-1.81-.92h-.4l-1.76-1.49c1.13-.1,1.98-.12,2.57-.04.81.1,1.43.49,1.87,1.16Z"/>
          <path class="cls-2" d="m65.33,7.16v11.42l-.93-.77c-.82-1.3-1.28-2.01-1.36-2.13-.52-.69-1.19-1.24-2.02-1.67-.97-.51-2.03-.8-3.18-.86l-1.87-2.22c2.61-1.62,5.13-2.77,7.56-3.43v-.35h-7.54l-1.79-1.54h12.63l1.79,1.54h-3.3Zm-5.04,10.23c-.45,0-.84-.14-1.15-.43-.31-.28-.47-.61-.47-.98s.14-.66.43-.91c.29-.26.63-.38,1.03-.38.35,0,.68.1.98.31.3.2.49.46.58.77.1.39,0,.77-.28,1.11-.28.35-.66.52-1.13.52Zm3.25-7.79c-1.45.45-2.82,1.08-4.11,1.89,1.8.72,3.17,1.73,4.11,3.03v-4.92Z"/>
          <path class="cls-2" d="m69.95,7.16v11.57l-1.74-1.54V7.16h-1.44l-1.92-1.54h3.45l-.15-.57c-.07-.32-.41-.84-1.03-1.56-1.09-1.27-2.97-1.91-5.65-1.91-.57,0-1.19.06-1.87.18-.91.16-1.36.38-1.36.66,0,.21.31.31.93.33,1.85.06,2.87.1,3.07.13,2.07.25,3.12,1.06,3.15,2.44,0,.25-.06.54-.18.88h-2.24c.72-.5,1.08-.83,1.08-.99,0-.34-.6-.53-1.81-.59-1.43-.06-2.17-.1-2.22-.11-.66-.07-1.31-.29-1.98-.65-.66-.36-1-.87-1-1.55s.49-1.19,1.47-1.6c1.13-.47,2.28-.7,3.44-.7.84,0,1.93.18,3.26.55.61.18,1.32.56,2.15,1.14.47.34.93.8,1.37,1.4s.74,1.15.91,1.66l.28.88h2.14l1.74,1.54h-3.88Z"/>
          <path class="cls-2" d="m90.41,17.74c-.12-.44-.36-.99-.73-1.65-.34-.34-.86-.51-1.56-.51-.4,0-1.12.07-2.14.2-.89.12-1.6.15-2.14.11-1.73-.13-2.94-.76-3.63-1.89-.4-.67-.61-1.4-.61-2.2,0-1.13.2-2.04.61-2.74.15-.38.34-.57.55-.57.13,0,.25.05.35.15l.63.59c-.34.44-.54.77-.6,1.01-.05.13-.1.5-.15,1.12-.07.72.19,1.33.78,1.84.23.2.66.37,1.28.48.55.12,1.03.15,1.41.11.79-.09,1.43-.13,1.92-.13,1.24,0,2.23.21,2.95.64.13.12.27.23.4.33v-7.51s-.04-.02-.13-.02c-.6,0-1.4.38-2.37,1.15-.52.42-.87.88-1.06,1.39h.33c.42,0,.75.15.98.44.23.29.35.62.35.99s-.12.67-.37.97c-.24.29-.55.47-.92.53-.23.03-.45.04-.66.04-1.01,0-1.71-.35-2.09-1.05-.25-.45-.34-.88-.28-1.27.3-1.62,1.26-2.94,2.87-3.95.94-.59,1.86-.86,2.75-.84.44.01.94.25,1.51.7s.86.86.86,1.23v11.22l-1.11-.92Z"/>
          <path class="cls-2" d="m98.83,10.1v.09c0,.28-.14.52-.43.74-.29.21-.6.32-.93.32-.97,0-1.51-.55-1.61-1.65-.05-.48.14-.88.58-1.19.38-.28.85-.42,1.4-.42.62,0,1.19.32,1.73.94v-1.78h-6.31l-1.68-1.54h15.65l1.76,1.54h-7.64v3.84c0,.07.02.15.05.24.02.01.07.02.15.02s.31-.16.68-.48.57-.53.61-.61l1.31-1.65c1.02.67,1.7,1.65,2.02,2.94.08.35.13.69.13,1.01,0,.72-.19,1.45-.55,2.2-.79,1.62-2.32,2.43-4.59,2.42-1.03,0-2.03-.29-3.03-.86-.92-.54-1.66-1.21-2.19-2.02-.13-.21-.47-.75-1.01-1.65-.35-.76-.89-2.56-1.61-5.4l1.74,1.52c.22.97.55,1.95.98,2.96.19.43.64,1.02,1.36,1.78,1.01,1.05,2.28,1.58,3.81,1.58.81,0,1.59-.2,2.34-.6.29-.15.62-.5,1.01-1.06.22-.46.34-.77.35-.93.03-.43-.05-.82-.25-1.17-.29.4-.82.82-1.59,1.24-.59.4-1.13.6-1.64.6-.66,0-1.15-.29-1.49-.86l-.61-1.56c-.03-.06-.2-.25-.5-.57Z"/>
          <path class="cls-2" d="m118.74,16.64c-.14-.19-.23-.43-.3-.7,0-.57.21-1,.63-1.3.19-.13.61-.21,1.29-.24.42-.01.79.14,1.12.47.33.33.49.68.49,1.04,0,.59-.24,1.08-.72,1.49-.48.41-1.06.61-1.73.61-.84,0-1.54-.2-2.09-.59-1.65-1.19-2.47-2.86-2.47-5.03,0-2.28.88-4.15,2.65-5.6.96-.79,1.97-1.19,3.03-1.19l1.71,1.49c-1.51.13-2.74.61-3.68,1.45-1.31,1.17-1.97,2.67-1.97,4.5,0,.37.09.87.28,1.51.34,1.16.92,1.84,1.76,2.07Z"/>
          <path class="cls-2" d="m130.61,7.16v.35c1.05,0,2.03.39,2.96,1.16.86.73,1.41,1.56,1.65,2.48.08.35.13.67.13.97,0,.61-.2,1.15-.61,1.6-.44.5-1,.75-1.69.75-.49,0-.92-.15-1.31-.46-.39-.31-.58-.67-.58-1.1,0-.48.28-.92.83-1.32.32-.09.6-.13.86-.13.49,0,.96.19,1.41.57.08.06.12.12.12.2.02.16-.2.24-.66.24.12-.21.18-.34.18-.42,0-.61-.3-1.19-.91-1.71-.69-.6-1.49-.89-2.39-.88v9.09l-.93-.81c-.27-.7-.46-1.13-.55-1.3-.17-.32-.47-.71-.91-1.16-.54-.56-1.02-.95-1.46-1.19-.96-.51-1.98-.83-3.07-.94l-1.97-2.09c2.13-1.54,4.52-2.68,7.16-3.42v-.48h-7.52l-1.78-1.54h16.41l1.74,1.54h-7.11Zm-4.26,3.51c-.19.12-.6.37-1.24.77,1.6.66,2.85,1.6,3.76,2.81v-4.63c-1.08.37-1.91.72-2.52,1.05Z"/>
          <path class="cls-2" d="m137.84,6.78c-.1-1.02-.15-2.15-.15-3.38l.97.7c.08.47.2.86.35,1.19.07.09.16.2.27.33h1.87l1.75,1.54h-3.5v11.88l-1.71-1.62v-8.31c0-.44-.1-.78-.3-1.03-.49-.61-1.09-.92-1.81-.92h-.4l-1.76-1.49c1.13-.1,1.98-.12,2.57-.04.81.1,1.43.49,1.87,1.16Z"/>
          <path class="cls-2" d="m150.75,7.16c.39.51.58,1.1.58,1.76,0,.91-.3,1.69-.91,2.35-.35.38-.68.63-.98.75l-.88.13c-1.06-.1-1.94-.45-2.65-1.06l-.55-.48c-.08.34-.28.61-.6.84-.32.22-.67.33-1.06.33-.08.01-.17.02-.25.02-.49,0-.87-.16-1.15-.47-.28-.31-.41-.68-.41-1.11,0-.72.47-1.19,1.41-1.4.25-.04.38-.04.38,0l-.25-1.3c-.12-.25-.26-.37-.43-.35h-1.94l-1.79-1.54h13.31l1.74,1.54h-3.55Zm-1.89,0h-3.98l.43.84c0,.15.03.34.1.57.2.22.69.58,1.47,1.08.62.29,1.11.44,1.44.44.57,0,.94-.12,1.09-.37.08-.13.13-.46.13-.99.02-.98-.21-1.5-.68-1.56Z"/>
          <path class="cls-2" d="m159.97,8.83l-.18-1.14-.18-3.93,1.16.73c.03.06.08.12.13.2.03.37.12.61.25.75l.35.2h.63c.42,0,.7.01.86.04l1.71,1.49h-3.28v11.44c-.49-.43-1.12-.95-1.89-1.58l.18-5.72c-.24-.51-.51-1.03-.82-1.54-.05-.1-.17-.21-.36-.33l-4.2,3.74-2.36-.77,1.36-1.25c.1-.09.15-.25.15-.48,0-.6-.19-.88-.55-.86.03,0-.03-.02-.2-.07-.08.16-.53.32-1.33.48-.32.06-.63-.04-.92-.3-.3-.26-.44-.52-.44-.8,0-.22.08-.45.25-.7,1.19-1.73,2.8-2.6,4.84-2.63,1.06-.01,2.03.28,2.92.88.81.54,1.45,1.26,1.92,2.15Zm-5.19,1.19l2.34-2.02c-.54-.38-1.05-.57-1.54-.57-1.11,0-1.92.33-2.42.99.87.1,1.41.64,1.61,1.6Z"/>
          <path class="cls-2" d="m164.66,6.78c-.1-1.02-.15-2.15-.15-3.38l.97.7c.08.47.2.86.35,1.19.07.09.16.2.28.33h1.87l1.75,1.54h-3.5v11.88l-1.71-1.62v-8.31c0-.44-.1-.78-.3-1.03-.49-.61-1.09-.92-1.82-.92h-.4l-1.76-1.49c1.13-.1,1.98-.12,2.57-.04.81.1,1.43.49,1.87,1.16Z"/>
          <path class="cls-2" d="m172.32,10.96c.3.38.5.72.58,1.01.03.18.05.34.05.5,0,.47-.18.84-.53,1.13-.35.28-.83.43-1.44.43-1.76,0-2.65-.77-2.65-2.31,0-.77.32-1.42.97-1.93.64-.51,1.42-.77,2.32-.77,1.62,0,3.01.88,4.14,2.63l.15.24v-4.74h-8.42l-1.76-1.54h13.71l1.84,1.54h-3.58v11.9l-.96-1.14v-.37c0-.56-.16-1.3-.48-2.22-.25-.84-.53-1.53-.84-2.07-.31-.55-.73-1.04-1.25-1.46-.62-.51-1.24-.79-1.87-.83Z"/>
          <path class="cls-2" d="m182.23,7.16v11.57l-1.74-1.54V7.16h-1.44l-1.92-1.54h3.45l-.15-.57c-.07-.32-.41-.84-1.03-1.56-1.09-1.27-2.97-1.91-5.65-1.91-.57,0-1.19.06-1.87.18-.91.16-1.36.38-1.36.66,0,.21.31.31.93.33,1.85.06,2.87.1,3.07.13,2.07.25,3.12,1.06,3.15,2.44,0,.25-.06.54-.18.88h-2.24c.72-.5,1.08-.83,1.08-.99,0-.34-.6-.53-1.81-.59-1.43-.06-2.17-.1-2.22-.11-.66-.07-1.31-.29-1.98-.65-.66-.36-1-.87-1-1.55s.49-1.19,1.47-1.6c1.13-.47,2.28-.7,3.44-.7.84,0,1.93.18,3.26.55.61.18,1.32.56,2.15,1.14.47.34.93.8,1.37,1.4s.74,1.15.91,1.66l.28.88h2.14l1.74,1.54h-3.88Z"/>
        </g>
        <rect class="cls-2" x="3.38" y="20.81" width="182.72" height="1.91" rx=".28" ry=".28"/>
      </g>
    </g>
  </g>
</svg>